# Blender v2.72 (sub 0) OBJ File: 'SpeedPower.blend'
# www.blender.org
o Cube.001_Cube
v 0.284711 1.150673 0.318804
v 0.111506 1.150673 0.418804
v -0.109465 0.708732 0.036071
v 0.063740 0.708732 -0.063929
v 0.063740 1.592615 -0.063929
v -0.109465 1.592615 0.036071
v -0.330436 1.150673 -0.346661
v -0.157231 1.150673 -0.446661
vt 1.000000 0.000000
vt 1.000000 1.000000
vt 0.000000 1.000000
vt 0.000000 0.000000
vn 0.353600 0.707100 0.612400
vn -0.866000 0.000000 0.500000
vn -0.353600 -0.707100 -0.612400
vn 0.866000 -0.000000 -0.500000
vn 0.353600 -0.707100 0.612400
vn -0.353600 0.707100 -0.612400
s off
f 6/1/1 2/2/1 1/3/1
f 7/1/2 3/2/2 2/3/2
f 7/4/3 8/1/3 4/2/3
f 8/4/4 5/1/4 1/2/4
f 1/4/5 2/1/5 3/2/5
f 8/4/6 7/1/6 6/2/6
f 5/4/1 6/1/1 1/3/1
f 6/4/2 7/1/2 2/3/2
f 3/3/3 7/4/3 4/2/3
f 4/3/4 8/4/4 1/2/4
f 4/3/5 1/4/5 3/2/5
f 5/3/6 8/4/6 6/2/6
