# Blender v2.72 (sub 0) OBJ File: 'SpeedPower.blend'
# www.blender.org
o Cube.001_Cube
v 0.358225 1.220622 -0.259051
v 0.426629 1.220622 -0.071113
v 0.011340 0.778680 0.080040
v -0.057064 0.778680 -0.107898
v -0.057064 1.662564 -0.107898
v 0.011340 1.662564 0.080040
v -0.403949 1.220622 0.231194
v -0.472354 1.220622 0.043255
vt 0.000000 0.000000
vt 1.000000 0.000000
vt 1.000000 1.000000
vt 0.000000 1.000000
vn 0.664500 0.707100 -0.241800
vn 0.342000 0.000000 0.939700
vn -0.664500 -0.707100 0.241800
vn -0.342000 -0.000000 -0.939700
vn 0.664500 -0.707100 -0.241800
vn -0.664500 0.707100 0.241800
s off
f 5/1/1 6/2/1 2/3/1
f 7/2/2 3/3/2 2/4/2
f 7/1/3 8/2/3 4/3/3
f 8/1/4 5/2/4 1/3/4
f 1/1/5 2/2/5 3/3/5
f 7/2/6 6/3/6 5/4/6
f 1/4/1 5/1/1 2/3/1
f 6/1/2 7/2/2 2/4/2
f 3/4/3 7/1/3 4/3/3
f 4/4/4 8/1/4 1/3/4
f 4/4/5 1/1/5 3/3/5
f 8/1/6 7/2/6 5/4/6
