# Blender v2.72 (sub 0) OBJ File: 'Default.blend'
# www.blender.org
g Cube
v 0.251048 0.821140 0.223258
v 0.251048 1.205768 0.545999
v -0.251048 1.205768 0.545999
v -0.251048 0.821140 0.223258
v 0.251048 1.143881 -0.161371
v 0.251048 1.528510 0.161371
v -0.251048 1.528510 0.161371
v -0.251048 1.143881 -0.161371
vt 0.000000 0.000000
vt 1.000000 0.000000
vt 1.000000 1.000000
vt 0.000000 1.000000
vn 0.000000 0.642800 -0.766000
vn -1.000000 -0.000000 0.000000
vn 0.000000 -0.642800 0.766000
vn 1.000000 0.000000 0.000000
vn 0.000000 0.766000 0.642800
vn 0.000000 -0.766000 -0.642800
s off
f 8/1/1 7/2/1 6/3/1
f 3/2/2 7/3/2 8/4/2
f 2/2/3 3/3/3 4/4/3
f 2/3/4 1/4/4 5/1/4
f 3/1/5 2/2/5 6/3/5
f 1/1/6 4/2/6 8/3/6
f 5/4/1 8/1/1 6/3/1
f 4/1/2 3/2/2 8/4/2
f 1/1/3 2/2/3 4/4/3
f 6/2/4 2/3/4 5/1/4
f 7/4/5 3/1/5 6/3/5
f 5/4/6 1/1/6 8/3/6
