# Blender v2.72 (sub 0) OBJ File: 'Default.blend'
# www.blender.org
g Cube
v 0.590490 1.163721 1.284243
v 0.590490 2.068404 0.525123
v -0.590490 2.068404 0.525123
v -0.590490 1.163721 1.284243
v 0.590490 0.404602 0.379560
v 0.590490 1.309284 -0.379560
v -0.590490 1.309284 -0.379560
v -0.590490 0.404602 0.379560
vt 1.000000 0.000000
vt 1.000000 1.000000
vt 0.000000 1.000000
vt 0.000000 0.000000
vn 0.000000 -0.642800 -0.766000
vn -1.000000 0.000000 0.000000
vn 0.000000 0.642800 0.766000
vn 1.000000 0.000000 0.000000
vn 0.000000 0.766000 -0.642800
vn 0.000000 -0.766000 0.642800
s off
f 7/1/1 6/2/1 5/3/1
f 4/4/2 3/1/2 7/2/2
f 2/1/3 3/2/3 4/3/3
f 1/3/4 5/4/4 6/1/4
f 3/4/5 2/1/5 6/2/5
f 1/4/6 4/1/6 8/2/6
f 8/4/1 7/1/1 5/3/1
f 8/3/2 4/4/2 7/2/2
f 1/4/3 2/1/3 4/3/3
f 2/2/4 1/3/4 6/1/4
f 7/3/5 3/4/5 6/2/5
f 5/3/6 1/4/6 8/2/6
