# Blender v2.72 (sub 0) OBJ File: 'PowerPower.blend'
# www.blender.org
o Cube_Cube.001
v 0.248595 0.945184 0.444068
v 0.075390 0.945184 0.544068
v 0.146100 0.803762 0.666542
v 0.319305 0.803762 0.566542
v 0.071818 0.591630 0.137882
v -0.101387 0.591630 0.237882
v -0.030677 0.450209 0.360356
v 0.142528 0.450209 0.260356
v 0.296726 0.744427 0.526367
v 0.367436 0.885848 0.648841
v 0.194231 0.885848 0.748841
v 0.123521 0.744427 0.626367
v -0.056828 1.451534 -0.086006
v 0.013883 1.592955 0.036469
v -0.159322 1.592955 0.136469
v -0.230033 1.451534 0.013994
v 0.083055 1.448505 0.156279
v 0.012345 1.589927 0.033804
v -0.160861 1.589927 0.133804
v -0.090150 1.448505 0.256279
v -0.270498 0.741399 -0.456093
v -0.341209 0.882820 -0.578568
v -0.514414 0.882820 -0.478568
v -0.443703 0.741399 -0.356093
v 0.152883 0.977428 0.278290
v -0.020322 0.977428 0.378290
v -0.091033 0.836007 0.255816
v 0.082172 0.836007 0.155815
v -0.023894 1.330981 -0.027896
v -0.197099 1.330981 0.072104
v -0.267810 1.189560 -0.050371
v -0.094605 1.189560 -0.150371
v 0.054542 0.788311 0.107959
v -0.118663 0.788311 0.207959
v -0.189374 0.646890 0.085485
v -0.016169 0.646890 -0.014515
v -0.122235 1.141865 -0.198227
v -0.295440 1.141865 -0.098227
v -0.366151 1.000443 -0.220702
v -0.192946 1.000443 -0.320702
v -0.051363 0.599195 -0.075474
v -0.224568 0.599195 0.024526
v -0.295279 0.457774 -0.097949
v -0.122074 0.457774 -0.197949
v -0.228140 0.952748 -0.381661
v -0.401345 0.952748 -0.281660
v -0.472056 0.811327 -0.404135
v -0.298851 0.811327 -0.504135
vt 0.000000 0.000000
vt 1.000000 0.000000
vt 1.000000 1.000000
vt 0.000000 1.000000
vn -0.353600 0.707100 -0.612400
vn -0.866000 0.000000 0.500000
vn 0.353600 -0.707100 0.612400
vn 0.866000 0.000000 -0.500000
vn 0.353600 0.707100 0.612400
vn -0.353600 -0.707100 -0.612400
s off
f 6/1/1 2/1/1 1/1/1
f 7/1/2 3/1/2 2/1/2
f 7/1/3 8/1/3 4/1/3
f 5/1/4 1/1/4 4/1/4
f 2/1/5 3/1/5 4/1/5
f 8/1/6 7/1/6 6/1/6
f 14/2/4 10/3/4 9/4/4
f 15/2/5 11/3/5 10/4/5
f 16/2/2 12/3/2 11/4/2
f 16/1/6 13/2/6 9/3/6
f 9/1/3 10/2/3 11/3/3
f 15/2/1 14/3/1 13/4/1
f 22/2/4 18/3/4 17/4/4
f 23/2/1 19/3/1 18/4/1
f 24/2/2 20/3/2 19/4/2
f 21/2/3 17/3/3 20/4/3
f 18/2/5 19/3/5 20/4/5
f 23/2/6 22/3/6 21/4/6
f 30/1/5 26/1/5 25/1/5
f 30/1/2 31/1/2 27/1/2
f 32/1/6 28/1/6 27/1/6
f 29/1/4 25/1/4 28/1/4
f 26/1/3 27/1/3 28/1/3
f 31/1/1 30/1/1 29/1/1
f 37/1/5 38/1/5 34/1/5
f 39/1/2 35/1/2 34/1/2
f 40/1/6 36/1/6 35/1/6
f 40/1/4 37/1/4 33/1/4
f 34/1/3 35/1/3 36/1/3
f 39/1/1 38/1/1 37/1/1
f 46/1/5 42/1/5 41/1/5
f 47/1/2 43/1/2 42/1/2
f 48/1/6 44/1/6 43/1/6
f 48/1/4 45/1/4 41/1/4
f 42/1/3 43/1/3 44/1/3
f 48/1/1 47/1/1 46/1/1
f 5/1/1 6/1/1 1/1/1
f 6/1/2 7/1/2 2/1/2
f 3/1/3 7/1/3 4/1/3
f 8/1/4 5/1/4 4/1/4
f 1/1/5 2/1/5 4/1/5
f 5/1/6 8/1/6 6/1/6
f 13/1/4 14/2/4 9/4/4
f 14/1/5 15/2/5 10/4/5
f 15/1/2 16/2/2 11/4/2
f 12/4/6 16/1/6 9/3/6
f 12/4/3 9/1/3 11/3/3
f 16/1/1 15/2/1 13/4/1
f 21/1/4 22/2/4 17/4/4
f 22/1/1 23/2/1 18/4/1
f 23/1/2 24/2/2 19/4/2
f 24/1/3 21/2/3 20/4/3
f 17/1/5 18/2/5 20/4/5
f 24/1/6 23/2/6 21/4/6
f 29/1/5 30/1/5 25/1/5
f 26/1/2 30/1/2 27/1/2
f 31/1/6 32/1/6 27/1/6
f 32/1/4 29/1/4 28/1/4
f 25/1/3 26/1/3 28/1/3
f 32/1/1 31/1/1 29/1/1
f 33/1/5 37/1/5 34/1/5
f 38/1/2 39/1/2 34/1/2
f 39/1/6 40/1/6 35/1/6
f 36/1/4 40/1/4 33/1/4
f 33/1/3 34/1/3 36/1/3
f 40/1/1 39/1/1 37/1/1
f 45/1/5 46/1/5 41/1/5
f 46/1/2 47/1/2 42/1/2
f 47/1/6 48/1/6 43/1/6
f 44/1/4 48/1/4 41/1/4
f 41/1/3 42/1/3 44/1/3
f 45/1/1 48/1/1 46/1/1
