# Blender v2.72 (sub 0) OBJ File: 'PowerPower.blend'
# www.blender.org
o Cube_Cube.001
v -0.136057 0.848790 -0.405012
v 0.060904 0.848790 -0.439742
v 0.036346 0.707368 -0.579015
v -0.160615 0.707368 -0.544285
v -0.074663 0.495236 -0.056830
v 0.122299 0.495236 -0.091560
v 0.097741 0.353815 -0.230833
v -0.099221 0.353815 -0.196103
v -0.153138 0.648033 -0.498809
v -0.177696 0.789454 -0.638082
v 0.019266 0.789454 -0.672812
v 0.043824 0.648033 -0.533539
v -0.030349 1.355139 0.197555
v -0.054907 1.496561 0.058282
v 0.142055 1.496561 0.023552
v 0.166612 1.355139 0.162825
v -0.078930 1.352111 -0.077961
v -0.054373 1.493532 0.061312
v 0.142589 1.493532 0.026582
v 0.118031 1.352111 -0.112691
v 0.043858 0.645004 0.618403
v 0.068416 0.786426 0.757676
v 0.265378 0.786426 0.722946
v 0.240820 0.645004 0.583673
v -0.102817 0.881034 -0.216496
v 0.094145 0.881034 -0.251226
v 0.118702 0.739613 -0.111953
v -0.078259 0.739613 -0.077223
v -0.041422 1.234587 0.131686
v 0.155539 1.234587 0.096956
v 0.180097 1.093166 0.236229
v -0.016865 1.093166 0.270959
v -0.068663 0.691917 -0.022803
v 0.128298 0.691917 -0.057533
v 0.152856 0.550496 0.081740
v -0.044105 0.550496 0.116470
v -0.007269 1.045471 0.325379
v 0.189693 1.045471 0.290649
v 0.214251 0.904049 0.429922
v 0.017289 0.904049 0.464652
v -0.031882 0.502801 0.185790
v 0.165079 0.502801 0.151060
v 0.189637 0.361379 0.290332
v -0.007325 0.361379 0.325062
v 0.029512 0.856354 0.533972
v 0.226474 0.856354 0.499242
v 0.251031 0.714933 0.638514
v 0.054070 0.714933 0.673244
vt 0.000000 0.000000
vt 1.000000 0.000000
vt 1.000000 1.000000
vt 0.000000 1.000000
vn 0.122800 0.707100 0.696400
vn 0.984800 0.000000 -0.173600
vn -0.122800 -0.707100 -0.696400
vn -0.984800 -0.000000 0.173600
vn -0.122800 0.707100 -0.696400
vn 0.122800 -0.707100 0.696400
s off
f 6/1/1 2/1/1 1/1/1
f 7/1/2 3/1/2 2/1/2
f 7/1/3 8/1/3 4/1/3
f 5/1/4 1/1/4 4/1/4
f 2/1/5 3/1/5 4/1/5
f 7/1/6 6/1/6 5/1/6
f 13/1/4 14/2/4 10/3/4
f 15/2/5 11/3/5 10/4/5
f 16/2/2 12/3/2 11/4/2
f 13/2/6 9/3/6 12/4/6
f 9/1/3 10/2/3 11/3/3
f 16/1/1 15/2/1 14/3/1
f 21/1/4 22/2/4 18/3/4
f 23/2/1 19/3/1 18/4/1
f 23/1/2 24/2/2 20/3/2
f 21/2/3 17/3/3 20/4/3
f 18/2/5 19/3/5 20/4/5
f 23/2/6 22/3/6 21/4/6
f 30/1/5 26/1/5 25/1/5
f 31/1/2 27/1/2 26/1/2
f 32/1/6 28/1/6 27/1/6
f 29/1/4 25/1/4 28/1/4
f 26/1/3 27/1/3 28/1/3
f 32/1/1 31/1/1 30/1/1
f 38/1/5 34/1/5 33/1/5
f 38/1/2 39/1/2 35/1/2
f 39/1/6 40/1/6 36/1/6
f 37/1/4 33/1/4 36/1/4
f 34/1/3 35/1/3 36/1/3
f 39/1/1 38/1/1 37/1/1
f 46/1/5 42/1/5 41/1/5
f 47/1/2 43/1/2 42/1/2
f 48/1/6 44/1/6 43/1/6
f 45/1/4 41/1/4 44/1/4
f 42/1/3 43/1/3 44/1/3
f 47/1/1 46/1/1 45/1/1
f 5/1/1 6/1/1 1/1/1
f 6/1/2 7/1/2 2/1/2
f 3/1/3 7/1/3 4/1/3
f 8/1/4 5/1/4 4/1/4
f 1/1/5 2/1/5 4/1/5
f 8/1/6 7/1/6 5/1/6
f 9/4/4 13/1/4 10/3/4
f 14/1/5 15/2/5 10/4/5
f 15/1/2 16/2/2 11/4/2
f 16/1/6 13/2/6 12/4/6
f 12/4/3 9/1/3 11/3/3
f 13/4/1 16/1/1 14/3/1
f 17/4/4 21/1/4 18/3/4
f 22/1/1 23/2/1 18/4/1
f 19/4/2 23/1/2 20/3/2
f 24/1/3 21/2/3 20/4/3
f 17/1/5 18/2/5 20/4/5
f 24/1/6 23/2/6 21/4/6
f 29/1/5 30/1/5 25/1/5
f 30/1/2 31/1/2 26/1/2
f 31/1/6 32/1/6 27/1/6
f 32/1/4 29/1/4 28/1/4
f 25/1/3 26/1/3 28/1/3
f 29/1/1 32/1/1 30/1/1
f 37/1/5 38/1/5 33/1/5
f 34/1/2 38/1/2 35/1/2
f 35/1/6 39/1/6 36/1/6
f 40/1/4 37/1/4 36/1/4
f 33/1/3 34/1/3 36/1/3
f 40/1/1 39/1/1 37/1/1
f 45/1/5 46/1/5 41/1/5
f 46/1/2 47/1/2 42/1/2
f 47/1/6 48/1/6 43/1/6
f 48/1/4 45/1/4 44/1/4
f 41/1/3 42/1/3 44/1/3
f 48/1/1 47/1/1 45/1/1
