# Blender v2.72 (sub 0) OBJ File: 'PowerPower.blend'
# www.blender.org
o Cube_Cube.001
v -0.403262 0.819762 -0.222247
v -0.274705 0.819762 -0.375456
v -0.383040 0.678341 -0.466360
v -0.511598 0.678341 -0.313151
v -0.132424 0.466209 0.005012
v -0.003867 0.466209 -0.148197
v -0.112202 0.324787 -0.239101
v -0.240759 0.324787 -0.085892
v -0.476639 0.619005 -0.283121
v -0.584974 0.760427 -0.374025
v -0.456417 0.760427 -0.527234
v -0.348081 0.619005 -0.436330
v 0.065037 1.326112 0.171398
v -0.043298 1.467533 0.080494
v 0.085259 1.467533 -0.072715
v 0.193595 1.326112 0.018189
v -0.149276 1.323084 -0.008432
v -0.040941 1.464505 0.082472
v 0.087616 1.464505 -0.070738
v -0.020719 1.323084 -0.161641
v 0.392400 0.615977 0.446086
v 0.500735 0.757398 0.536990
v 0.629292 0.757398 0.383781
v 0.520957 0.615977 0.292877
v -0.256623 0.852006 -0.099202
v -0.128066 0.852006 -0.252412
v -0.019731 0.710585 -0.161508
v -0.148288 0.710585 -0.008299
v 0.014215 1.205560 0.128057
v 0.142772 1.205560 -0.025152
v 0.251108 1.064138 0.065751
v 0.122550 1.064138 0.218960
v -0.105956 0.662890 0.027222
v 0.022601 0.662890 -0.125988
v 0.130936 0.521468 -0.035084
v 0.002379 0.521468 0.118125
v 0.164882 1.016443 0.254481
v 0.293439 1.016443 0.101272
v 0.401774 0.875022 0.192175
v 0.273217 0.875022 0.345384
v 0.056300 0.473773 0.163370
v 0.184858 0.473773 0.010161
v 0.293193 0.332352 0.101065
v 0.164636 0.332352 0.254274
v 0.327138 0.827326 0.390630
v 0.455696 0.827326 0.237421
v 0.564031 0.685905 0.328324
v 0.435474 0.685905 0.481533
vt 0.000000 0.000000
vt 1.000000 0.000000
vt 1.000000 1.000000
vt 0.000000 1.000000
vn 0.541700 0.707100 0.454500
vn 0.642800 0.000000 -0.766000
vn -0.541700 -0.707100 -0.454500
vn -0.642800 -0.000000 0.766000
vn -0.541700 0.707100 -0.454500
vn 0.541700 -0.707100 0.454500
s off
f 5/1/1 6/1/1 2/1/1
f 6/1/2 7/1/2 3/1/2
f 7/1/3 8/1/3 4/1/3
f 5/1/4 1/1/4 4/1/4
f 1/1/5 2/1/5 3/1/5
f 8/1/6 7/1/6 6/1/6
f 13/1/4 14/2/4 10/3/4
f 15/2/5 11/3/5 10/4/5
f 15/1/2 16/2/2 12/3/2
f 13/2/6 9/3/6 12/4/6
f 9/1/3 10/2/3 11/3/3
f 16/1/1 15/2/1 14/3/1
f 21/1/4 22/2/4 18/3/4
f 23/2/1 19/3/1 18/4/1
f 23/1/2 24/2/2 20/3/2
f 24/1/3 21/2/3 17/3/3
f 18/2/5 19/3/5 20/4/5
f 24/1/6 23/2/6 22/3/6
f 30/1/5 26/1/5 25/1/5
f 31/1/2 27/1/2 26/1/2
f 32/1/6 28/1/6 27/1/6
f 29/1/4 25/1/4 28/1/4
f 26/1/3 27/1/3 28/1/3
f 32/1/1 31/1/1 30/1/1
f 38/1/5 34/1/5 33/1/5
f 39/1/2 35/1/2 34/1/2
f 40/1/6 36/1/6 35/1/6
f 40/1/4 37/1/4 33/1/4
f 34/1/3 35/1/3 36/1/3
f 39/1/1 38/1/1 37/1/1
f 45/1/5 46/1/5 42/1/5
f 46/1/2 47/1/2 43/1/2
f 48/1/6 44/1/6 43/1/6
f 45/1/4 41/1/4 44/1/4
f 42/1/3 43/1/3 44/1/3
f 47/1/1 46/1/1 45/1/1
f 1/1/1 5/1/1 2/1/1
f 2/1/2 6/1/2 3/1/2
f 3/1/3 7/1/3 4/1/3
f 8/1/4 5/1/4 4/1/4
f 4/1/5 1/1/5 3/1/5
f 5/1/6 8/1/6 6/1/6
f 9/4/4 13/1/4 10/3/4
f 14/1/5 15/2/5 10/4/5
f 11/4/2 15/1/2 12/3/2
f 16/1/6 13/2/6 12/4/6
f 12/4/3 9/1/3 11/3/3
f 13/4/1 16/1/1 14/3/1
f 17/4/4 21/1/4 18/3/4
f 22/1/1 23/2/1 18/4/1
f 19/4/2 23/1/2 20/3/2
f 20/4/3 24/1/3 17/3/3
f 17/1/5 18/2/5 20/4/5
f 21/4/6 24/1/6 22/3/6
f 29/1/5 30/1/5 25/1/5
f 30/1/2 31/1/2 26/1/2
f 31/1/6 32/1/6 27/1/6
f 32/1/4 29/1/4 28/1/4
f 25/1/3 26/1/3 28/1/3
f 29/1/1 32/1/1 30/1/1
f 37/1/5 38/1/5 33/1/5
f 38/1/2 39/1/2 34/1/2
f 39/1/6 40/1/6 35/1/6
f 36/1/4 40/1/4 33/1/4
f 33/1/3 34/1/3 36/1/3
f 40/1/1 39/1/1 37/1/1
f 41/1/5 45/1/5 42/1/5
f 42/1/2 46/1/2 43/1/2
f 47/1/6 48/1/6 43/1/6
f 48/1/4 45/1/4 44/1/4
f 41/1/3 42/1/3 44/1/3
f 48/1/1 47/1/1 45/1/1
