# Blender v2.72 (sub 0) OBJ File: 'PowerPower.blend'
# www.blender.org
o Cube_Cube.001
v -0.065005 0.887364 0.524420
v -0.261967 0.887364 0.489691
v -0.286524 0.745943 0.628964
v -0.089563 0.745943 0.663693
v -0.003611 0.533811 0.176238
v -0.200573 0.533811 0.141509
v -0.225130 0.392390 0.280782
v -0.028169 0.392390 0.315511
v -0.081035 0.686608 0.618403
v -0.105593 0.828029 0.757676
v -0.302554 0.828029 0.722946
v -0.277997 0.686608 0.583674
v 0.041752 1.393714 -0.077961
v 0.017195 1.535136 0.061312
v -0.179767 1.535136 0.026582
v -0.155209 1.393714 -0.112691
v -0.006829 1.390686 0.197555
v 0.017729 1.532107 0.058282
v -0.179233 1.532107 0.023552
v -0.203790 1.390686 0.162825
v 0.115959 0.683579 -0.498809
v 0.140517 0.825001 -0.638082
v -0.056445 0.825001 -0.672812
v -0.081002 0.683579 -0.533539
v -0.031765 0.919609 0.335905
v -0.228726 0.919609 0.301175
v -0.204169 0.778187 0.161902
v -0.007207 0.778187 0.196632
v 0.029629 1.273162 -0.012277
v -0.167332 1.273162 -0.047007
v -0.142775 1.131741 -0.186280
v 0.054187 1.131741 -0.151550
v 0.002389 0.730492 0.142212
v -0.194573 0.730492 0.107482
v -0.170015 0.589071 -0.031791
v 0.026946 0.589071 0.002939
v 0.063782 1.084045 -0.205971
v -0.133179 1.084045 -0.240700
v -0.108622 0.942624 -0.379973
v 0.088340 0.942624 -0.345243
v 0.039169 0.541376 -0.066381
v -0.157792 0.541376 -0.101111
v -0.133235 0.399954 -0.240383
v 0.063727 0.399954 -0.205654
v 0.100563 0.894929 -0.414563
v -0.096399 0.894929 -0.449293
v -0.071841 0.753507 -0.588566
v 0.125120 0.753507 -0.553836
vt 0.000000 0.000000
vt 1.000000 0.000000
vt 1.000000 1.000000
vt 0.000000 1.000000
vn 0.122800 0.707100 -0.696400
vn -0.984800 -0.000000 -0.173600
vn -0.122800 -0.707100 0.696400
vn 0.984800 -0.000000 0.173600
vn -0.122800 0.707100 0.696400
vn 0.122800 -0.707100 -0.696400
s off
f 6/1/1 2/1/1 1/1/1
f 7/1/2 3/1/2 2/1/2
f 7/1/3 8/1/3 4/1/3
f 5/1/4 1/1/4 4/1/4
f 2/1/5 3/1/5 4/1/5
f 8/1/6 7/1/6 6/1/6
f 14/2/4 10/3/4 9/4/4
f 15/2/5 11/3/5 10/4/5
f 16/2/2 12/3/2 11/4/2
f 16/1/6 13/2/6 9/3/6
f 10/2/3 11/3/3 12/4/3
f 15/2/1 14/3/1 13/4/1
f 22/2/4 18/3/4 17/4/4
f 23/2/1 19/3/1 18/4/1
f 23/1/2 24/2/2 20/3/2
f 21/2/3 17/3/3 20/4/3
f 18/2/5 19/3/5 20/4/5
f 23/2/6 22/3/6 21/4/6
f 30/1/5 26/1/5 25/1/5
f 30/1/2 31/1/2 27/1/2
f 32/1/6 28/1/6 27/1/6
f 29/1/4 25/1/4 28/1/4
f 25/1/3 26/1/3 27/1/3
f 32/1/1 31/1/1 30/1/1
f 38/1/5 34/1/5 33/1/5
f 39/1/2 35/1/2 34/1/2
f 40/1/6 36/1/6 35/1/6
f 37/1/4 33/1/4 36/1/4
f 33/1/3 34/1/3 35/1/3
f 39/1/1 38/1/1 37/1/1
f 46/1/5 42/1/5 41/1/5
f 46/1/2 47/1/2 43/1/2
f 48/1/6 44/1/6 43/1/6
f 45/1/4 41/1/4 44/1/4
f 42/1/3 43/1/3 44/1/3
f 47/1/1 46/1/1 45/1/1
f 5/1/1 6/1/1 1/1/1
f 6/1/2 7/1/2 2/1/2
f 3/1/3 7/1/3 4/1/3
f 8/1/4 5/1/4 4/1/4
f 1/1/5 2/1/5 4/1/5
f 5/1/6 8/1/6 6/1/6
f 13/1/4 14/2/4 9/4/4
f 14/1/5 15/2/5 10/4/5
f 15/1/2 16/2/2 11/4/2
f 12/4/6 16/1/6 9/3/6
f 9/1/3 10/2/3 12/4/3
f 16/1/1 15/2/1 13/4/1
f 21/1/4 22/2/4 17/4/4
f 22/1/1 23/2/1 18/4/1
f 19/4/2 23/1/2 20/3/2
f 24/1/3 21/2/3 20/4/3
f 17/1/5 18/2/5 20/4/5
f 24/1/6 23/2/6 21/4/6
f 29/1/5 30/1/5 25/1/5
f 26/1/2 30/1/2 27/1/2
f 31/1/6 32/1/6 27/1/6
f 32/1/4 29/1/4 28/1/4
f 28/1/3 25/1/3 27/1/3
f 29/1/1 32/1/1 30/1/1
f 37/1/5 38/1/5 33/1/5
f 38/1/2 39/1/2 34/1/2
f 39/1/6 40/1/6 35/1/6
f 40/1/4 37/1/4 36/1/4
f 36/1/3 33/1/3 35/1/3
f 40/1/1 39/1/1 37/1/1
f 45/1/5 46/1/5 41/1/5
f 42/1/2 46/1/2 43/1/2
f 47/1/6 48/1/6 43/1/6
f 48/1/4 45/1/4 44/1/4
f 41/1/3 42/1/3 44/1/3
f 48/1/1 47/1/1 45/1/1
