# Blender v2.72 (sub 0) OBJ File: 'PowerPower.blend'
# www.blender.org
o Cube_Cube.001
v -0.356886 0.858431 0.384396
v -0.485444 0.858431 0.231187
v -0.593779 0.717009 0.322091
v -0.465221 0.717009 0.475300
v -0.086049 0.504877 0.157136
v -0.214606 0.504877 0.003928
v -0.322941 0.363456 0.094832
v -0.194384 0.363456 0.248040
v -0.429577 0.657674 0.446087
v -0.537912 0.799095 0.536991
v -0.666470 0.799095 0.383782
v -0.558134 0.657674 0.292878
v 0.112098 1.364781 -0.008432
v 0.003763 1.506202 0.082471
v -0.124794 1.506202 -0.070737
v -0.016459 1.364781 -0.161641
v -0.102215 1.361752 0.171398
v 0.006120 1.503174 0.080494
v -0.122438 1.503174 -0.072715
v -0.230773 1.361752 0.018189
v 0.439460 0.654645 -0.283122
v 0.547795 0.796067 -0.374026
v 0.419238 0.796067 -0.527234
v 0.310903 0.654645 -0.436330
v -0.210247 0.890675 0.261351
v -0.338805 0.890675 0.108143
v -0.230470 0.749254 0.017239
v -0.101912 0.749254 0.170448
v 0.060591 1.244228 0.034092
v -0.067967 1.244228 -0.119117
v 0.040368 1.102807 -0.210021
v 0.168926 1.102807 -0.056812
v -0.059581 0.701558 0.134927
v -0.188138 0.701558 -0.018282
v -0.079803 0.560137 -0.109186
v 0.048754 0.560137 0.044023
v 0.211257 1.055112 -0.092333
v 0.082700 1.055112 -0.245541
v 0.191035 0.913690 -0.336445
v 0.319592 0.913690 -0.183237
v 0.102676 0.512442 -0.001222
v -0.025882 0.512442 -0.154431
v 0.082453 0.371020 -0.245335
v 0.211011 0.371020 -0.092126
v 0.373513 0.865995 -0.228482
v 0.244956 0.865995 -0.381691
v 0.353291 0.724574 -0.472595
v 0.481848 0.724574 -0.319386
vt 0.000000 0.000000
vt 1.000000 0.000000
vt 1.000000 1.000000
vt 0.000000 1.000000
vn 0.541700 0.707100 -0.454500
vn -0.642800 0.000000 -0.766000
vn -0.541700 -0.707100 0.454500
vn 0.642800 0.000000 0.766000
vn -0.541700 0.707100 0.454500
vn 0.541700 -0.707100 -0.454500
s off
f 6/1/1 2/1/1 1/1/1
f 7/1/2 3/1/2 2/1/2
f 8/1/3 4/1/3 3/1/3
f 5/1/4 1/1/4 4/1/4
f 2/1/5 3/1/5 4/1/5
f 7/1/6 6/1/6 5/1/6
f 13/1/4 14/2/4 10/3/4
f 14/1/5 15/2/5 11/3/5
f 16/2/2 12/3/2 11/4/2
f 16/1/6 13/2/6 9/3/6
f 10/2/3 11/3/3 12/4/3
f 15/2/1 14/3/1 13/4/1
f 22/2/4 18/3/4 17/4/4
f 23/2/1 19/3/1 18/4/1
f 24/2/2 20/3/2 19/4/2
f 21/2/3 17/3/3 20/4/3
f 18/2/5 19/3/5 20/4/5
f 24/1/6 23/2/6 22/3/6
f 30/1/5 26/1/5 25/1/5
f 30/1/2 31/1/2 27/1/2
f 31/1/6 32/1/6 28/1/6
f 32/1/4 29/1/4 25/1/4
f 25/1/3 26/1/3 27/1/3
f 32/1/1 31/1/1 30/1/1
f 38/1/5 34/1/5 33/1/5
f 39/1/2 35/1/2 34/1/2
f 39/1/6 40/1/6 36/1/6
f 40/1/4 37/1/4 33/1/4
f 34/1/3 35/1/3 36/1/3
f 39/1/1 38/1/1 37/1/1
f 46/1/5 42/1/5 41/1/5
f 47/1/2 43/1/2 42/1/2
f 48/1/6 44/1/6 43/1/6
f 45/1/4 41/1/4 44/1/4
f 42/1/3 43/1/3 44/1/3
f 47/1/1 46/1/1 45/1/1
f 5/1/1 6/1/1 1/1/1
f 6/1/2 7/1/2 2/1/2
f 7/1/3 8/1/3 3/1/3
f 8/1/4 5/1/4 4/1/4
f 1/1/5 2/1/5 4/1/5
f 8/1/6 7/1/6 5/1/6
f 9/4/4 13/1/4 10/3/4
f 10/4/5 14/1/5 11/3/5
f 15/1/2 16/2/2 11/4/2
f 12/4/6 16/1/6 9/3/6
f 9/1/3 10/2/3 12/4/3
f 16/1/1 15/2/1 13/4/1
f 21/1/4 22/2/4 17/4/4
f 22/1/1 23/2/1 18/4/1
f 23/1/2 24/2/2 19/4/2
f 24/1/3 21/2/3 20/4/3
f 17/1/5 18/2/5 20/4/5
f 21/4/6 24/1/6 22/3/6
f 29/1/5 30/1/5 25/1/5
f 26/1/2 30/1/2 27/1/2
f 27/1/6 31/1/6 28/1/6
f 28/1/4 32/1/4 25/1/4
f 28/1/3 25/1/3 27/1/3
f 29/1/1 32/1/1 30/1/1
f 37/1/5 38/1/5 33/1/5
f 38/1/2 39/1/2 34/1/2
f 35/1/6 39/1/6 36/1/6
f 36/1/4 40/1/4 33/1/4
f 33/1/3 34/1/3 36/1/3
f 40/1/1 39/1/1 37/1/1
f 45/1/5 46/1/5 41/1/5
f 46/1/2 47/1/2 42/1/2
f 47/1/6 48/1/6 43/1/6
f 48/1/4 45/1/4 44/1/4
f 41/1/3 42/1/3 44/1/3
f 48/1/1 47/1/1 45/1/1
