# Blender v2.72 (sub 0) OBJ File: 'PowerPower.blend'
# www.blender.org
o Cube_Cube.001
v 0.437176 1.002876 0.180936
v 0.368772 1.002876 0.368874
v 0.501665 0.861455 0.417243
v 0.570069 0.861455 0.229305
v 0.104945 0.649323 0.060014
v 0.036541 0.649323 0.247952
v 0.169433 0.507902 0.296321
v 0.237837 0.507902 0.108383
v 0.526947 0.802120 0.213042
v 0.659840 0.943541 0.261411
v 0.591436 0.943541 0.449350
v 0.458543 0.802120 0.400981
v -0.137516 1.509226 -0.028802
v -0.004623 1.650648 0.019567
v -0.073027 1.650648 0.207505
v -0.205920 1.509226 0.159136
v 0.125379 1.506198 0.066884
v -0.007514 1.647619 0.018515
v -0.075918 1.647619 0.206453
v 0.056975 1.506198 0.254822
v -0.539085 0.799091 -0.174961
v -0.671977 0.940513 -0.223330
v -0.740381 0.940513 -0.035391
v -0.607489 0.799091 0.012978
v 0.257297 1.035121 0.115465
v 0.188893 1.035121 0.303404
v 0.056000 0.893699 0.255035
v 0.124404 0.893699 0.067096
v -0.074935 1.388674 -0.005457
v -0.143339 1.388674 0.182481
v -0.276232 1.247253 0.134113
v -0.207828 1.247253 -0.053826
v 0.072477 0.846004 0.048196
v 0.004073 0.846004 0.236135
v -0.128820 0.704583 0.187766
v -0.060416 0.704583 -0.000173
v -0.259755 1.199557 -0.072726
v -0.328159 1.199558 0.115213
v -0.461051 1.058136 0.066844
v -0.392648 1.058136 -0.121095
v -0.126560 0.656888 -0.024247
v -0.194964 0.656888 0.163691
v -0.327857 0.515466 0.115323
v -0.259453 0.515466 -0.072616
v -0.458792 1.010441 -0.145169
v -0.527196 1.010441 0.042769
v -0.660088 0.869020 -0.005600
v -0.591684 0.869020 -0.193538
vt 0.000000 0.000000
vt 1.000000 0.000000
vt 1.000000 1.000000
vt 0.000000 1.000000
vn -0.664500 0.707100 -0.241800
vn -0.342000 0.000000 0.939700
vn 0.664500 -0.707100 0.241800
vn 0.342000 -0.000000 -0.939700
vn 0.664500 0.707100 0.241800
vn -0.664500 -0.707100 -0.241800
s off
f 6/1/1 2/1/1 1/1/1
f 6/1/2 7/1/2 3/1/2
f 7/1/3 8/1/3 4/1/3
f 5/1/4 1/1/4 4/1/4
f 2/1/5 3/1/5 4/1/5
f 7/1/6 6/1/6 5/1/6
f 13/1/4 14/2/4 10/3/4
f 15/2/5 11/3/5 10/4/5
f 15/1/2 16/2/2 12/3/2
f 16/1/6 13/2/6 9/3/6
f 9/1/3 10/2/3 11/3/3
f 15/2/1 14/3/1 13/4/1
f 21/1/4 22/2/4 18/3/4
f 22/1/1 23/2/1 19/3/1
f 23/1/2 24/2/2 20/3/2
f 21/2/3 17/3/3 20/4/3
f 17/1/5 18/2/5 19/3/5
f 23/2/6 22/3/6 21/4/6
f 29/1/5 30/1/5 26/1/5
f 31/1/2 27/1/2 26/1/2
f 32/1/6 28/1/6 27/1/6
f 32/1/4 29/1/4 25/1/4
f 26/1/3 27/1/3 28/1/3
f 31/1/1 30/1/1 29/1/1
f 38/1/5 34/1/5 33/1/5
f 39/1/2 35/1/2 34/1/2
f 40/1/6 36/1/6 35/1/6
f 37/1/4 33/1/4 36/1/4
f 34/1/3 35/1/3 36/1/3
f 40/1/1 39/1/1 38/1/1
f 46/1/5 42/1/5 41/1/5
f 47/1/2 43/1/2 42/1/2
f 48/1/6 44/1/6 43/1/6
f 48/1/4 45/1/4 41/1/4
f 42/1/3 43/1/3 44/1/3
f 47/1/1 46/1/1 45/1/1
f 5/1/1 6/1/1 1/1/1
f 2/1/2 6/1/2 3/1/2
f 3/1/3 7/1/3 4/1/3
f 8/1/4 5/1/4 4/1/4
f 1/1/5 2/1/5 4/1/5
f 8/1/6 7/1/6 5/1/6
f 9/4/4 13/1/4 10/3/4
f 14/1/5 15/2/5 10/4/5
f 11/4/2 15/1/2 12/3/2
f 12/4/6 16/1/6 9/3/6
f 12/4/3 9/1/3 11/3/3
f 16/1/1 15/2/1 13/4/1
f 17/4/4 21/1/4 18/3/4
f 18/4/1 22/1/1 19/3/1
f 19/4/2 23/1/2 20/3/2
f 24/1/3 21/2/3 20/4/3
f 20/4/5 17/1/5 19/3/5
f 24/1/6 23/2/6 21/4/6
f 25/1/5 29/1/5 26/1/5
f 30/1/2 31/1/2 26/1/2
f 31/1/6 32/1/6 27/1/6
f 28/1/4 32/1/4 25/1/4
f 25/1/3 26/1/3 28/1/3
f 32/1/1 31/1/1 29/1/1
f 37/1/5 38/1/5 33/1/5
f 38/1/2 39/1/2 34/1/2
f 39/1/6 40/1/6 35/1/6
f 40/1/4 37/1/4 36/1/4
f 33/1/3 34/1/3 36/1/3
f 37/1/1 40/1/1 38/1/1
f 45/1/5 46/1/5 41/1/5
f 46/1/2 47/1/2 42/1/2
f 47/1/6 48/1/6 43/1/6
f 44/1/4 48/1/4 41/1/4
f 41/1/3 42/1/3 44/1/3
f 48/1/1 47/1/1 45/1/1
