# Blender v2.72 (sub 0) OBJ File: 'SpeedPower.blend'
# www.blender.org
g Cube_Cube.001
v 0.501906 0.826133 -0.174962
v 0.634799 0.967554 -0.223331
v 0.703203 0.967554 -0.035392
v 0.570311 0.826133 0.012977
v -0.162556 1.533240 0.066884
v -0.029664 1.674661 0.018515
v 0.038740 1.674661 0.206453
v -0.094152 1.533240 0.254822
v 0.100338 1.530211 -0.028802
v -0.032555 1.671633 0.019567
v 0.035849 1.671633 0.207505
v 0.168742 1.530211 0.159136
v -0.564125 0.823105 0.213043
v -0.697018 0.964526 0.261412
v -0.628614 0.964526 0.449351
v -0.495721 0.823105 0.400981
vt 1.000000 0.000000
vt 1.000000 1.000000
vt 0.000000 1.000000
vt 0.000000 0.000000
vn -0.342000 0.000000 -0.939700
vn 0.664500 0.707100 -0.241800
vn 0.342000 -0.000000 0.939700
vn -0.664500 -0.707100 0.241800
vn 0.664500 -0.707100 -0.241800
vn -0.664500 0.707100 0.241800
s off
f 6/1/1 2/2/1 1/3/1
f 7/1/2 3/2/2 2/3/2
f 8/1/3 4/2/3 3/3/3
f 5/1/4 1/2/4 4/3/4
f 1/4/5 2/1/5 3/2/5
f 7/1/6 6/2/6 5/3/6
f 13/4/1 14/1/1 10/2/1
f 15/1/6 11/2/6 10/3/6
f 16/1/3 12/2/3 11/3/3
f 13/1/5 9/2/5 12/3/5
f 9/4/2 10/1/2 11/2/2
f 15/1/4 14/2/4 13/3/4
f 5/4/1 6/1/1 1/3/1
f 6/4/2 7/1/2 2/3/2
f 7/4/3 8/1/3 3/3/3
f 8/4/4 5/1/4 4/3/4
f 4/3/5 1/4/5 3/2/5
f 8/4/6 7/1/6 5/3/6
f 9/3/1 13/4/1 10/2/1
f 14/4/6 15/1/6 10/3/6
f 15/4/3 16/1/3 11/3/3
f 16/4/5 13/1/5 12/3/5
f 12/3/2 9/4/2 11/2/2
f 16/4/4 15/1/4 13/3/4
