# Blender v2.72 (sub 0) OBJ File: 'SpeedPower.blend'
# www.blender.org
g Cube_Cube.001
v 0.526947 0.802120 0.213042
v 0.659840 0.943541 0.261411
v 0.591436 0.943541 0.449350
v 0.458543 0.802120 0.400981
v -0.137516 1.509226 -0.028802
v -0.004623 1.650648 0.019567
v -0.073027 1.650648 0.207505
v -0.205920 1.509226 0.159136
v 0.125379 1.506198 0.066884
v -0.007514 1.647619 0.018515
v -0.075918 1.647619 0.206453
v 0.056975 1.506198 0.254822
v -0.539085 0.799091 -0.174961
v -0.671977 0.940513 -0.223330
v -0.740381 0.940513 -0.035391
v -0.607489 0.799091 0.012978
vt 0.000000 0.000000
vt 1.000000 0.000000
vt 1.000000 1.000000
vt 0.000000 1.000000
vn 0.342000 0.000000 -0.939700
vn 0.664500 0.707100 0.241800
vn -0.342000 0.000000 0.939700
vn -0.664500 -0.707100 -0.241800
vn 0.664500 -0.707100 0.241800
vn -0.664500 0.707100 -0.241800
s off
f 5/1/1 6/2/1 2/3/1
f 7/2/2 3/3/2 2/4/2
f 7/1/3 8/2/3 4/3/3
f 8/1/4 5/2/4 1/3/4
f 1/1/5 2/2/5 3/3/5
f 7/2/6 6/3/6 5/4/6
f 13/1/1 14/2/1 10/3/1
f 14/1/6 15/2/6 11/3/6
f 15/1/3 16/2/3 12/3/3
f 13/2/5 9/3/5 12/4/5
f 9/1/2 10/2/2 11/3/2
f 15/2/4 14/3/4 13/4/4
f 1/4/1 5/1/1 2/3/1
f 6/1/2 7/2/2 2/4/2
f 3/4/3 7/1/3 4/3/3
f 4/4/4 8/1/4 1/3/4
f 4/4/5 1/1/5 3/3/5
f 8/1/6 7/2/6 5/4/6
f 9/4/1 13/1/1 10/3/1
f 10/4/6 14/1/6 11/3/6
f 11/4/3 15/1/3 12/3/3
f 16/1/5 13/2/5 12/4/5
f 12/4/2 9/1/2 11/3/2
f 16/1/4 15/2/4 13/4/4
