# Blender v2.72 (sub 0) OBJ File: 'SpeedPower.blend'
# www.blender.org
g Cube_Cube.001
v -0.476639 0.619005 -0.283121
v -0.584974 0.760427 -0.374025
v -0.456417 0.760427 -0.527234
v -0.348081 0.619005 -0.436330
v 0.065037 1.326112 0.171398
v -0.043298 1.467533 0.080494
v 0.085259 1.467533 -0.072715
v 0.193595 1.326112 0.018189
v -0.149276 1.323084 -0.008432
v -0.040941 1.464505 0.082472
v 0.087616 1.464505 -0.070738
v -0.020719 1.323084 -0.161641
v 0.392400 0.615977 0.446086
v 0.500735 0.757398 0.536990
v 0.629292 0.757398 0.383781
v 0.520957 0.615977 0.292877
vt 0.000000 0.000000
vt 1.000000 0.000000
vt 1.000000 1.000000
vt 0.000000 1.000000
vn -0.642800 -0.000000 0.766000
vn -0.541700 0.707100 -0.454500
vn 0.642800 0.000000 -0.766000
vn 0.541700 -0.707100 0.454500
vn -0.541700 -0.707100 -0.454500
vn 0.541700 0.707100 0.454500
s off
f 5/1/1 6/2/1 2/3/1
f 7/2/2 3/3/2 2/4/2
f 7/1/3 8/2/3 4/3/3
f 5/2/4 1/3/4 4/4/4
f 1/1/5 2/2/5 3/3/5
f 8/1/6 7/2/6 6/3/6
f 13/1/1 14/2/1 10/3/1
f 15/2/6 11/3/6 10/4/6
f 15/1/3 16/2/3 12/3/3
f 16/1/5 13/2/5 9/3/5
f 10/2/2 11/3/2 12/4/2
f 16/1/4 15/2/4 14/3/4
f 1/4/1 5/1/1 2/3/1
f 6/1/2 7/2/2 2/4/2
f 3/4/3 7/1/3 4/3/3
f 8/1/4 5/2/4 4/4/4
f 4/4/5 1/1/5 3/3/5
f 5/4/6 8/1/6 6/3/6
f 9/4/1 13/1/1 10/3/1
f 14/1/6 15/2/6 10/4/6
f 11/4/3 15/1/3 12/3/3
f 12/4/5 16/1/5 9/3/5
f 9/1/2 10/2/2 12/4/2
f 13/4/4 16/1/4 14/3/4
