# Blender v2.72 (sub 0) OBJ File: 'SpeedPower.blend'
# www.blender.org
g Cube_Cube.001
v -0.429577 0.657674 0.446087
v -0.537912 0.799095 0.536991
v -0.666470 0.799095 0.383782
v -0.558134 0.657674 0.292878
v 0.112098 1.364781 -0.008432
v 0.003763 1.506202 0.082471
v -0.124794 1.506202 -0.070737
v -0.016459 1.364781 -0.161641
v -0.102215 1.361752 0.171398
v 0.006120 1.503174 0.080494
v -0.122438 1.503174 -0.072715
v -0.230773 1.361752 0.018189
v 0.439460 0.654645 -0.283122
v 0.547795 0.796067 -0.374026
v 0.419238 0.796067 -0.527234
v 0.310903 0.654645 -0.436330
vt 0.000000 0.000000
vt 1.000000 0.000000
vt 1.000000 1.000000
vt 0.000000 1.000000
vn 0.642800 0.000000 0.766000
vn -0.541700 0.707100 0.454500
vn -0.642800 -0.000000 -0.766000
vn 0.541700 -0.707100 -0.454500
vn -0.541700 -0.707100 0.454500
vn 0.541700 0.707100 -0.454500
s off
f 5/1/1 6/2/1 2/3/1
f 6/1/2 7/2/2 3/3/2
f 8/2/3 4/3/3 3/4/3
f 8/1/4 5/2/4 1/3/4
f 2/2/5 3/3/5 4/4/5
f 7/2/6 6/3/6 5/4/6
f 14/2/1 10/3/1 9/4/1
f 15/2/6 11/3/6 10/4/6
f 16/2/3 12/3/3 11/4/3
f 13/2/5 9/3/5 12/4/5
f 10/2/2 11/3/2 12/4/2
f 16/1/4 15/2/4 14/3/4
f 1/4/1 5/1/1 2/3/1
f 2/4/2 6/1/2 3/3/2
f 7/1/3 8/2/3 3/4/3
f 4/4/4 8/1/4 1/3/4
f 1/1/5 2/2/5 4/4/5
f 8/1/6 7/2/6 5/4/6
f 13/1/1 14/2/1 9/4/1
f 14/1/6 15/2/6 10/4/6
f 15/1/3 16/2/3 11/4/3
f 16/1/5 13/2/5 12/4/5
f 9/1/2 10/2/2 12/4/2
f 13/4/4 16/1/4 14/3/4
