# Blender v2.72 (sub 0) OBJ File: 'SpeedPower.blend'
# www.blender.org
g Cube_Cube.001
v 0.296726 0.744427 0.526367
v 0.367436 0.885848 0.648841
v 0.194231 0.885848 0.748841
v 0.123521 0.744427 0.626367
v -0.056828 1.451534 -0.086006
v 0.013883 1.592955 0.036469
v -0.159322 1.592955 0.136469
v -0.230033 1.451534 0.013994
v 0.083055 1.448505 0.156279
v 0.012345 1.589927 0.033804
v -0.160861 1.589927 0.133804
v -0.090150 1.448505 0.256279
v -0.270498 0.741399 -0.456093
v -0.341209 0.882820 -0.578568
v -0.514414 0.882820 -0.478568
v -0.443703 0.741399 -0.356093
vt 1.000000 0.000000
vt 1.000000 1.000000
vt 0.000000 1.000000
vt 0.000000 0.000000
vn 0.866000 0.000000 -0.500000
vn 0.353600 0.707100 0.612400
vn -0.866000 -0.000000 0.500000
vn -0.353600 -0.707100 -0.612400
vn 0.353600 -0.707100 0.612400
vn -0.353600 0.707100 -0.612400
s off
f 6/1/1 2/2/1 1/3/1
f 7/1/2 3/2/2 2/3/2
f 8/1/3 4/2/3 3/3/3
f 8/4/4 5/1/4 1/2/4
f 1/4/5 2/1/5 3/2/5
f 7/1/6 6/2/6 5/3/6
f 14/1/1 10/2/1 9/3/1
f 15/1/6 11/2/6 10/3/6
f 16/1/3 12/2/3 11/3/3
f 13/1/5 9/2/5 12/3/5
f 10/1/2 11/2/2 12/3/2
f 15/1/4 14/2/4 13/3/4
f 5/4/1 6/1/1 1/3/1
f 6/4/2 7/1/2 2/3/2
f 7/4/3 8/1/3 3/3/3
f 4/3/4 8/4/4 1/2/4
f 4/3/5 1/4/5 3/2/5
f 8/4/6 7/1/6 5/3/6
f 13/4/1 14/1/1 9/3/1
f 14/4/6 15/1/6 10/3/6
f 15/4/3 16/1/3 11/3/3
f 16/4/5 13/1/5 12/3/5
f 9/4/2 10/1/2 12/3/2
f 16/4/4 15/1/4 13/3/4
