# Blender v2.72 (sub 0) OBJ File: 'Damage.blend'
# www.blender.org
g Cube.005_Cube.006
v -0.182794 1.061589 0.535650
v -0.040685 0.998420 0.702700
v 0.088309 0.887078 0.550863
v -0.053800 0.950247 0.383812
v -0.306312 0.872634 0.569275
v -0.164203 0.809466 0.736326
v -0.035209 0.698123 0.584488
v -0.177318 0.761292 0.417437
v 0.433616 1.148191 0.273775
v 0.575726 1.085022 0.440826
v 0.704720 0.973680 0.288988
v 0.562610 1.036849 0.121937
v 0.310098 0.959236 0.307400
v 0.452208 0.896068 0.474451
v 0.581202 0.784725 0.322613
v 0.439092 0.847894 0.155563
v 0.264631 0.760028 -0.252356
v 0.406740 0.696860 -0.085306
v 0.535734 0.585518 -0.237143
v 0.393625 0.648686 -0.404194
v 0.141113 0.571074 -0.218731
v 0.283222 0.507905 -0.051680
v 0.412216 0.396563 -0.203518
v 0.270107 0.459732 -0.370569
v -0.351780 0.673426 0.009518
v -0.209671 0.610258 0.176569
v -0.080677 0.498916 0.024731
v -0.222786 0.562084 -0.142319
v -0.475298 0.484472 0.043143
v -0.333189 0.421303 0.210194
v -0.204195 0.309961 0.058356
v -0.346304 0.373129 -0.108694
v 0.215621 1.693966 -0.058863
v 0.357731 1.630797 0.108188
v 0.486725 1.519455 -0.043650
v 0.344615 1.582623 -0.210700
v 0.092103 1.505011 -0.025238
v 0.234213 1.441843 0.141813
v 0.363207 1.330500 -0.010025
v 0.221097 1.393669 -0.177075
v -0.400790 1.607364 0.203012
v -0.258680 1.544195 0.370063
v -0.129686 1.432853 0.218225
v -0.271795 1.496022 0.051174
v -0.524308 1.418409 0.236637
v -0.382198 1.355241 0.403688
v -0.253204 1.243898 0.251850
v -0.395313 1.307067 0.084799
v 0.046635 1.305803 -0.584994
v 0.188745 1.242635 -0.417944
v 0.317739 1.131293 -0.569781
v 0.175629 1.194461 -0.736832
v -0.076883 1.116849 -0.551369
v 0.065227 1.053680 -0.384318
v 0.194221 0.942338 -0.536156
v 0.052111 1.005506 -0.703207
v -0.569776 1.219201 -0.323120
v -0.427666 1.156033 -0.156069
v -0.298672 1.044691 -0.307906
v -0.440781 1.107859 -0.474957
v -0.693294 1.030247 -0.289494
v -0.551184 0.967078 -0.122444
v -0.422190 0.855736 -0.274281
v -0.564299 0.918904 -0.441332
vt 0.000000 0.000000
vt 1.000000 0.000000
vt 1.000000 1.000000
vt 0.000000 1.000000
vn -0.565200 0.487800 0.665300
vn 0.622600 -0.276800 0.731900
vn 0.565200 -0.487800 -0.665300
vn -0.622600 0.276800 -0.731900
vn 0.541200 0.827900 -0.147300
vn -0.541200 -0.827900 0.147300
s off
f 5/1/1 6/2/1 2/3/1
f 6/1/2 7/2/2 3/3/2
f 8/2/3 4/3/3 3/4/3
f 5/2/4 1/3/4 4/4/4
f 2/2/5 3/3/5 4/4/5
f 7/2/6 6/3/6 5/4/6
f 13/1/1 14/2/1 10/3/1
f 15/2/2 11/3/2 10/4/2
f 16/2/3 12/3/3 11/4/3
f 16/1/4 13/2/4 9/3/4
f 10/2/5 11/3/5 12/4/5
f 16/1/6 15/2/6 14/3/6
f 21/1/1 22/2/1 18/3/1
f 23/2/2 19/3/2 18/4/2
f 23/1/3 24/2/3 20/3/3
f 21/2/4 17/3/4 20/4/4
f 18/2/5 19/3/5 20/4/5
f 23/2/6 22/3/6 21/4/6
f 29/1/1 30/2/1 26/3/1
f 30/1/2 31/2/2 27/3/2
f 32/2/3 28/3/3 27/4/3
f 29/2/4 25/3/4 28/4/4
f 26/2/5 27/3/5 28/4/5
f 32/1/6 31/2/6 30/3/6
f 38/2/1 34/3/1 33/4/1
f 38/1/2 39/2/2 35/3/2
f 40/2/3 36/3/3 35/4/3
f 37/2/4 33/3/4 36/4/4
f 34/2/5 35/3/5 36/4/5
f 39/2/6 38/3/6 37/4/6
f 45/1/1 46/2/1 42/3/1
f 47/2/2 43/3/2 42/4/2
f 48/2/3 44/3/3 43/4/3
f 45/2/4 41/3/4 44/4/4
f 42/2/5 43/3/5 44/4/5
f 47/2/6 46/3/6 45/4/6
f 54/2/1 50/3/1 49/4/1
f 55/2/2 51/3/2 50/4/2
f 55/1/3 56/2/3 52/3/3
f 56/1/4 53/2/4 49/3/4
f 49/1/5 50/2/5 51/3/5
f 55/2/6 54/3/6 53/4/6
f 62/2/1 58/3/1 57/4/1
f 63/2/2 59/3/2 58/4/2
f 64/2/3 60/3/3 59/4/3
f 61/2/4 57/3/4 60/4/4
f 58/2/5 59/3/5 60/4/5
f 63/2/6 62/3/6 61/4/6
f 1/4/1 5/1/1 2/3/1
f 2/4/2 6/1/2 3/3/2
f 7/1/3 8/2/3 3/4/3
f 8/1/4 5/2/4 4/4/4
f 1/1/5 2/2/5 4/4/5
f 8/1/6 7/2/6 5/4/6
f 9/4/1 13/1/1 10/3/1
f 14/1/2 15/2/2 10/4/2
f 15/1/3 16/2/3 11/4/3
f 12/4/4 16/1/4 9/3/4
f 9/1/5 10/2/5 12/4/5
f 13/4/6 16/1/6 14/3/6
f 17/4/1 21/1/1 18/3/1
f 22/1/2 23/2/2 18/4/2
f 19/4/3 23/1/3 20/3/3
f 24/1/4 21/2/4 20/4/4
f 17/1/5 18/2/5 20/4/5
f 24/1/6 23/2/6 21/4/6
f 25/4/1 29/1/1 26/3/1
f 26/4/2 30/1/2 27/3/2
f 31/1/3 32/2/3 27/4/3
f 32/1/4 29/2/4 28/4/4
f 25/1/5 26/2/5 28/4/5
f 29/4/6 32/1/6 30/3/6
f 37/1/1 38/2/1 33/4/1
f 34/4/2 38/1/2 35/3/2
f 39/1/3 40/2/3 35/4/3
f 40/1/4 37/2/4 36/4/4
f 33/1/5 34/2/5 36/4/5
f 40/1/6 39/2/6 37/4/6
f 41/4/1 45/1/1 42/3/1
f 46/1/2 47/2/2 42/4/2
f 47/1/3 48/2/3 43/4/3
f 48/1/4 45/2/4 44/4/4
f 41/1/5 42/2/5 44/4/5
f 48/1/6 47/2/6 45/4/6
f 53/1/1 54/2/1 49/4/1
f 54/1/2 55/2/2 50/4/2
f 51/4/3 55/1/3 52/3/3
f 52/4/4 56/1/4 49/3/4
f 52/4/5 49/1/5 51/3/5
f 56/1/6 55/2/6 53/4/6
f 61/1/1 62/2/1 57/4/1
f 62/1/2 63/2/2 58/4/2
f 63/1/3 64/2/3 59/4/3
f 64/1/4 61/2/4 60/4/4
f 57/1/5 58/2/5 60/4/5
f 64/1/6 63/2/6 61/4/6
