# Blender v2.72 (sub 0) OBJ File: 'Damage.blend'
# www.blender.org
g Cube.005_Cube.006
v 0.333864 0.960650 -0.467986
v 0.348129 1.148119 -0.597382
v 0.168596 1.237168 -0.488159
v 0.154332 1.049699 -0.358763
v 0.193664 0.865692 -0.621017
v 0.207929 1.053161 -0.750413
v 0.028397 1.142210 -0.641190
v 0.014132 0.954741 -0.511794
v 0.239184 1.470869 -0.035837
v 0.253449 1.658337 -0.165233
v 0.073916 1.747386 -0.056010
v 0.059652 1.559918 0.073386
v 0.098984 1.375911 -0.188867
v 0.113249 1.563379 -0.318263
v -0.066283 1.652429 -0.209040
v -0.080548 1.464960 -0.079644
v -0.339866 1.190063 0.168833
v -0.325602 1.377532 0.039436
v -0.505134 1.466581 0.148659
v -0.519399 1.279113 0.278055
v -0.480066 1.095105 0.015802
v -0.465801 1.282574 -0.113594
v -0.645334 1.371623 -0.004371
v -0.659598 1.184155 0.125025
v -0.245187 0.679845 -0.263317
v -0.230922 0.867313 -0.392713
v -0.410454 0.956363 -0.283490
v -0.424719 0.768894 -0.154094
v -0.385386 0.584887 -0.416347
v -0.371121 0.772355 -0.545743
v -0.550654 0.861405 -0.436521
v -0.564918 0.673936 -0.307125
v 0.573514 1.129012 0.441026
v 0.587779 1.316481 0.311630
v 0.408247 1.405530 0.420853
v 0.393982 1.218062 0.550249
v 0.433315 1.034054 0.287995
v 0.447579 1.221523 0.158599
v 0.268047 1.310572 0.267822
v 0.253782 1.123104 0.397218
v 0.668194 0.618794 0.008876
v 0.682459 0.806262 -0.120520
v 0.502927 0.895312 -0.011297
v 0.488662 0.707843 0.118099
v 0.527995 0.523836 -0.144154
v 0.542259 0.711304 -0.273550
v 0.362727 0.800354 -0.164327
v 0.348462 0.612885 -0.034931
v -0.005536 0.848207 0.645695
v 0.008728 1.035675 0.516299
v -0.170804 1.124725 0.625522
v -0.185069 0.937256 0.754918
v -0.145736 0.753249 0.492664
v -0.131471 0.940718 0.363268
v -0.311003 1.029767 0.472491
v -0.325268 0.842298 0.601887
v 0.089144 0.337988 0.213545
v 0.103408 0.525457 0.084149
v -0.076124 0.614506 0.193372
v -0.090389 0.427038 0.322768
v -0.051056 0.243030 0.060515
v -0.036791 0.430499 -0.068881
v -0.216323 0.519548 0.040342
v -0.230588 0.332080 0.169738
vt 0.000000 0.000000
vt 1.000000 0.000000
vt 1.000000 1.000000
vt 0.000000 1.000000
vn 0.786600 -0.390200 -0.478600
vn 0.062500 0.821400 -0.566900
vn -0.786600 0.390200 0.478600
vn -0.062500 -0.821400 0.566900
vn 0.614300 0.416100 0.670500
vn -0.614300 -0.416100 -0.670500
s off
f 5/1/1 6/2/1 2/3/1
f 6/1/2 7/2/2 3/3/2
f 8/2/3 4/3/3 3/4/3
f 8/1/4 5/2/4 1/3/4
f 2/2/5 3/3/5 4/4/5
f 8/1/6 7/2/6 6/3/6
f 13/1/1 14/2/1 10/3/1
f 15/2/2 11/3/2 10/4/2
f 16/2/3 12/3/3 11/4/3
f 13/2/4 9/3/4 12/4/4
f 10/2/5 11/3/5 12/4/5
f 15/2/6 14/3/6 13/4/6
f 21/1/1 22/2/1 18/3/1
f 22/1/2 23/2/2 19/3/2
f 23/1/3 24/2/3 20/3/3
f 21/2/4 17/3/4 20/4/4
f 17/1/5 18/2/5 19/3/5
f 24/1/6 23/2/6 22/3/6
f 30/2/1 26/3/1 25/4/1
f 30/1/2 31/2/2 27/3/2
f 32/2/3 28/3/3 27/4/3
f 29/2/4 25/3/4 28/4/4
f 25/1/5 26/2/5 27/3/5
f 32/1/6 31/2/6 30/3/6
f 37/1/1 38/2/1 34/3/1
f 38/1/2 39/2/2 35/3/2
f 39/1/3 40/2/3 36/3/3
f 37/2/4 33/3/4 36/4/4
f 34/2/5 35/3/5 36/4/5
f 39/2/6 38/3/6 37/4/6
f 45/1/1 46/2/1 42/3/1
f 47/2/2 43/3/2 42/4/2
f 47/1/3 48/2/3 44/3/3
f 45/2/4 41/3/4 44/4/4
f 42/2/5 43/3/5 44/4/5
f 47/2/6 46/3/6 45/4/6
f 54/2/1 50/3/1 49/4/1
f 55/2/2 51/3/2 50/4/2
f 55/1/3 56/2/3 52/3/3
f 53/2/4 49/3/4 52/4/4
f 50/2/5 51/3/5 52/4/5
f 55/2/6 54/3/6 53/4/6
f 62/2/1 58/3/1 57/4/1
f 63/2/2 59/3/2 58/4/2
f 63/1/3 64/2/3 60/3/3
f 61/2/4 57/3/4 60/4/4
f 58/2/5 59/3/5 60/4/5
f 63/2/6 62/3/6 61/4/6
f 1/4/1 5/1/1 2/3/1
f 2/4/2 6/1/2 3/3/2
f 7/1/3 8/2/3 3/4/3
f 4/4/4 8/1/4 1/3/4
f 1/1/5 2/2/5 4/4/5
f 5/4/6 8/1/6 6/3/6
f 9/4/1 13/1/1 10/3/1
f 14/1/2 15/2/2 10/4/2
f 15/1/3 16/2/3 11/4/3
f 16/1/4 13/2/4 12/4/4
f 9/1/5 10/2/5 12/4/5
f 16/1/6 15/2/6 13/4/6
f 17/4/1 21/1/1 18/3/1
f 18/4/2 22/1/2 19/3/2
f 19/4/3 23/1/3 20/3/3
f 24/1/4 21/2/4 20/4/4
f 20/4/5 17/1/5 19/3/5
f 21/4/6 24/1/6 22/3/6
f 29/1/1 30/2/1 25/4/1
f 26/4/2 30/1/2 27/3/2
f 31/1/3 32/2/3 27/4/3
f 32/1/4 29/2/4 28/4/4
f 28/4/5 25/1/5 27/3/5
f 29/4/6 32/1/6 30/3/6
f 33/4/1 37/1/1 34/3/1
f 34/4/2 38/1/2 35/3/2
f 35/4/3 39/1/3 36/3/3
f 40/1/4 37/2/4 36/4/4
f 33/1/5 34/2/5 36/4/5
f 40/1/6 39/2/6 37/4/6
f 41/4/1 45/1/1 42/3/1
f 46/1/2 47/2/2 42/4/2
f 43/4/3 47/1/3 44/3/3
f 48/1/4 45/2/4 44/4/4
f 41/1/5 42/2/5 44/4/5
f 48/1/6 47/2/6 45/4/6
f 53/1/1 54/2/1 49/4/1
f 54/1/2 55/2/2 50/4/2
f 51/4/3 55/1/3 52/3/3
f 56/1/4 53/2/4 52/4/4
f 49/1/5 50/2/5 52/4/5
f 56/1/6 55/2/6 53/4/6
f 61/1/1 62/2/1 57/4/1
f 62/1/2 63/2/2 58/4/2
f 59/4/3 63/1/3 60/3/3
f 64/1/4 61/2/4 60/4/4
f 57/1/5 58/2/5 60/4/5
f 64/1/6 63/2/6 61/4/6
