# Blender v2.72 (sub 0) OBJ File: 'Damage.blend'
# www.blender.org
g Cube.005_Cube.006
v -0.362683 1.421409 0.101256
v -0.377306 1.494865 0.316853
v -0.265846 1.308769 0.387817
v -0.251223 1.235313 0.172221
v -0.561313 1.311574 0.125206
v -0.575937 1.385031 0.340802
v -0.464476 1.198934 0.411767
v -0.449853 1.125478 0.196171
v 0.247423 1.297473 0.362887
v 0.232800 1.370929 0.578483
v 0.344261 1.184832 0.649448
v 0.358884 1.111376 0.433851
v 0.048793 1.187638 0.386836
v 0.034170 1.261094 0.602432
v 0.145630 1.074998 0.673397
v 0.160253 1.001542 0.457801
v 0.196917 0.650969 0.174411
v 0.182294 0.724425 0.390007
v 0.293754 0.538329 0.460972
v 0.308377 0.464873 0.245376
v -0.001713 0.541135 0.198361
v -0.016337 0.614591 0.413957
v 0.095124 0.428494 0.484922
v 0.109747 0.355039 0.269326
v -0.413190 0.774906 -0.087219
v -0.427813 0.848362 0.128377
v -0.316352 0.662265 0.199342
v -0.301729 0.588809 -0.016254
v -0.611820 0.665071 -0.063270
v -0.626443 0.738527 0.152326
v -0.514983 0.552431 0.223291
v -0.500360 0.478975 0.007695
v 0.532484 1.448183 -0.230466
v 0.517861 1.521639 -0.014870
v 0.629321 1.335543 0.056095
v 0.643944 1.262087 -0.159501
v 0.333854 1.338349 -0.206516
v 0.319231 1.411804 0.009080
v 0.430691 1.225708 0.080045
v 0.445314 1.152252 -0.135551
v -0.077622 1.572120 -0.492096
v -0.092245 1.645576 -0.276500
v 0.019215 1.459479 -0.205535
v 0.033838 1.386023 -0.421131
v -0.276253 1.462285 -0.468146
v -0.290876 1.535741 -0.252550
v -0.179415 1.349645 -0.181585
v -0.164792 1.276189 -0.397181
v 0.481978 0.801680 -0.418941
v 0.467355 0.875136 -0.203345
v 0.578815 0.689039 -0.132380
v 0.593438 0.615584 -0.347976
v 0.283347 0.691845 -0.394992
v 0.268724 0.765301 -0.179396
v 0.380185 0.579205 -0.108431
v 0.394807 0.505749 -0.324027
v -0.128129 0.925616 -0.680572
v -0.142752 0.999072 -0.464975
v -0.031292 0.812976 -0.394010
v -0.016668 0.739520 -0.609607
v -0.326759 0.815782 -0.656622
v -0.341382 0.889238 -0.441026
v -0.229922 0.703141 -0.370061
v -0.215299 0.629685 -0.585657
vt 0.000000 0.000000
vt 1.000000 0.000000
vt 1.000000 1.000000
vt 0.000000 1.000000
vn -0.488400 0.815400 -0.310900
vn -0.064100 0.321800 0.944600
vn 0.488400 -0.815400 0.310900
vn 0.064100 -0.321800 -0.944600
vn 0.870300 0.481200 -0.104900
vn -0.870300 -0.481200 0.104900
s off
f 5/1/1 6/2/1 2/3/1
f 6/1/2 7/2/2 3/3/2
f 7/1/3 8/2/3 4/3/3
f 5/2/4 1/3/4 4/4/4
f 2/2/5 3/3/5 4/4/5
f 8/1/6 7/2/6 6/3/6
f 14/2/1 10/3/1 9/4/1
f 15/2/2 11/3/2 10/4/2
f 16/2/3 12/3/3 11/4/3
f 13/2/4 9/3/4 12/4/4
f 10/2/5 11/3/5 12/4/5
f 16/1/6 15/2/6 14/3/6
f 21/1/1 22/2/1 18/3/1
f 23/2/2 19/3/2 18/4/2
f 23/1/3 24/2/3 20/3/3
f 21/2/4 17/3/4 20/4/4
f 18/2/5 19/3/5 20/4/5
f 23/2/6 22/3/6 21/4/6
f 29/1/1 30/2/1 26/3/1
f 30/1/2 31/2/2 27/3/2
f 32/2/3 28/3/3 27/4/3
f 29/2/4 25/3/4 28/4/4
f 26/2/5 27/3/5 28/4/5
f 32/1/6 31/2/6 30/3/6
f 38/2/1 34/3/1 33/4/1
f 38/1/2 39/2/2 35/3/2
f 40/2/3 36/3/3 35/4/3
f 37/2/4 33/3/4 36/4/4
f 34/2/5 35/3/5 36/4/5
f 40/1/6 39/2/6 38/3/6
f 45/1/1 46/2/1 42/3/1
f 47/2/2 43/3/2 42/4/2
f 48/2/3 44/3/3 43/4/3
f 45/2/4 41/3/4 44/4/4
f 42/2/5 43/3/5 44/4/5
f 48/1/6 47/2/6 46/3/6
f 54/2/1 50/3/1 49/4/1
f 55/2/2 51/3/2 50/4/2
f 55/1/3 56/2/3 52/3/3
f 53/2/4 49/3/4 52/4/4
f 49/1/5 50/2/5 51/3/5
f 55/2/6 54/3/6 53/4/6
f 62/2/1 58/3/1 57/4/1
f 62/1/2 63/2/2 59/3/2
f 64/2/3 60/3/3 59/4/3
f 61/2/4 57/3/4 60/4/4
f 58/2/5 59/3/5 60/4/5
f 64/1/6 63/2/6 62/3/6
f 1/4/1 5/1/1 2/3/1
f 2/4/2 6/1/2 3/3/2
f 3/4/3 7/1/3 4/3/3
f 8/1/4 5/2/4 4/4/4
f 1/1/5 2/2/5 4/4/5
f 5/4/6 8/1/6 6/3/6
f 13/1/1 14/2/1 9/4/1
f 14/1/2 15/2/2 10/4/2
f 15/1/3 16/2/3 11/4/3
f 16/1/4 13/2/4 12/4/4
f 9/1/5 10/2/5 12/4/5
f 13/4/6 16/1/6 14/3/6
f 17/4/1 21/1/1 18/3/1
f 22/1/2 23/2/2 18/4/2
f 19/4/3 23/1/3 20/3/3
f 24/1/4 21/2/4 20/4/4
f 17/1/5 18/2/5 20/4/5
f 24/1/6 23/2/6 21/4/6
f 25/4/1 29/1/1 26/3/1
f 26/4/2 30/1/2 27/3/2
f 31/1/3 32/2/3 27/4/3
f 32/1/4 29/2/4 28/4/4
f 25/1/5 26/2/5 28/4/5
f 29/4/6 32/1/6 30/3/6
f 37/1/1 38/2/1 33/4/1
f 34/4/2 38/1/2 35/3/2
f 39/1/3 40/2/3 35/4/3
f 40/1/4 37/2/4 36/4/4
f 33/1/5 34/2/5 36/4/5
f 37/4/6 40/1/6 38/3/6
f 41/4/1 45/1/1 42/3/1
f 46/1/2 47/2/2 42/4/2
f 47/1/3 48/2/3 43/4/3
f 48/1/4 45/2/4 44/4/4
f 41/1/5 42/2/5 44/4/5
f 45/4/6 48/1/6 46/3/6
f 53/1/1 54/2/1 49/4/1
f 54/1/2 55/2/2 50/4/2
f 51/4/3 55/1/3 52/3/3
f 56/1/4 53/2/4 52/4/4
f 52/4/5 49/1/5 51/3/5
f 56/1/6 55/2/6 53/4/6
f 61/1/1 62/2/1 57/4/1
f 58/4/2 62/1/2 59/3/2
f 63/1/3 64/2/3 59/4/3
f 64/1/4 61/2/4 60/4/4
f 57/1/5 58/2/5 60/4/5
f 61/4/6 64/1/6 62/3/6
