# Blender v2.72 (sub 0) OBJ File: 'Spin.blend'
# www.blender.org
g Cube
v -0.370896 1.276098 0.237078
v -0.340922 0.677027 0.222398
v 0.244943 0.703234 0.349189
v 0.214969 1.302305 0.363868
v -0.244943 1.296766 -0.349189
v -0.214969 0.697695 -0.363868
v 0.370896 0.723902 -0.237078
v 0.340922 1.322973 -0.222398
vt 1.000000 0.000000
vt 1.000000 1.000000
vt 0.000000 1.000000
vt 0.000000 0.000000
vn -0.209900 -0.034400 0.977100
vn 0.209900 0.034400 -0.977100
vn -0.976400 -0.043700 -0.211300
vn 0.050000 -0.998500 -0.024500
vn 0.976400 0.043700 0.211300
vn -0.050000 0.998500 0.024500
s off
f 2/1/1 3/2/1 4/3/1
f 5/4/2 8/1/2 7/2/2
f 5/1/3 6/2/3 2/3/3
f 2/4/4 6/1/4 7/2/4
f 7/1/5 8/2/5 4/3/5
f 1/1/6 4/2/6 8/3/6
f 1/4/1 2/1/1 4/3/1
f 6/3/2 5/4/2 7/2/2
f 1/4/3 5/1/3 2/3/3
f 3/3/4 2/4/4 7/2/4
f 3/4/5 7/1/5 4/3/5
f 5/4/6 1/1/6 8/3/6
