# Blender v2.72 (sub 0) OBJ File: 'Spin.blend'
# www.blender.org
g Cube
v -0.155118 1.360597 0.340453
v -0.336872 0.788818 0.334543
v 0.230011 0.609451 0.254100
v 0.411765 1.181230 0.260010
v -0.230011 1.390548 -0.254100
v -0.411765 0.818770 -0.260010
v 0.155118 0.639404 -0.340453
v 0.336872 1.211182 -0.334543
vt 1.000000 0.000000
vt 1.000000 1.000000
vt 0.000000 1.000000
vt 0.000000 0.000000
vn 0.124800 -0.049900 0.990900
vn -0.124800 0.049900 -0.990900
vn -0.944800 0.298900 0.134100
vn -0.302900 -0.953000 -0.009900
vn 0.944800 -0.298900 -0.134100
vn 0.302900 0.953000 0.009900
vn 0.302900 0.953000 0.009800
s off
f 2/1/1 3/2/1 4/3/1
f 8/1/2 7/2/2 6/3/2
f 1/4/3 5/1/3 6/2/3
f 2/4/4 6/1/4 7/2/4
f 3/4/5 7/1/5 8/2/5
f 1/1/6 4/2/6 8/3/6
f 1/4/1 2/1/1 4/3/1
f 5/4/2 8/1/2 6/3/2
f 2/3/3 1/4/3 6/2/3
f 3/3/4 2/4/4 7/2/4
f 4/3/5 3/4/5 8/2/5
f 5/4/7 1/1/7 8/3/7
