# Blender v2.72 (sub 0) OBJ File: 'Spin.blend'
# www.blender.org
g Cube
v 0.063802 0.635852 -0.365138
v 0.265896 0.600217 0.198678
v -0.262826 0.799241 0.400772
v -0.464920 0.834876 -0.163043
v 0.262826 1.200759 -0.400772
v 0.464920 1.165124 0.163044
v -0.063802 1.364148 0.365138
v -0.265896 1.399783 -0.198678
vt 1.000000 0.000000
vt 1.000000 1.000000
vt 0.000000 1.000000
vt 0.000000 0.000000
vn -0.331700 -0.941500 0.059400
vn 0.331700 0.941500 -0.059400
vn 0.881200 -0.331700 -0.336800
vn 0.336800 -0.059400 0.939700
vn -0.881200 0.331700 0.336800
vn -0.336800 0.059400 -0.939700
s off
f 2/1/1 3/2/1 4/3/1
f 5/4/2 8/1/2 7/2/2
f 5/1/3 6/2/3 2/3/3
f 2/4/4 6/1/4 7/2/4
f 7/1/5 8/2/5 4/3/5
f 1/1/6 4/2/6 8/3/6
f 1/4/1 2/1/1 4/3/1
f 6/3/2 5/4/2 7/2/2
f 1/4/3 5/1/3 2/3/3
f 3/3/4 2/4/4 7/2/4
f 3/4/5 7/1/5 4/3/5
f 5/4/6 1/1/6 8/3/6
