# Blender v2.72 (sub 0) OBJ File: 'Spin.blend'
# www.blender.org
g Cube
v 0.327325 1.274112 0.296177
v -0.124387 0.936134 0.500449
v 0.034303 0.496594 0.124121
v 0.486014 0.834573 -0.080151
v -0.034303 1.503406 -0.124121
v -0.486014 1.165427 0.080151
v -0.327325 0.725888 -0.296177
v 0.124387 1.063866 -0.500449
vt 1.000000 0.000000
vt 1.000000 1.000000
vt 0.000000 1.000000
vt 0.000000 0.000000
vn 0.602700 -0.382200 0.700500
vn -0.602700 0.382200 -0.700500
vn -0.264500 0.732600 0.627200
vn -0.752900 -0.563300 0.340500
vn 0.264500 -0.732600 -0.627200
vn 0.752900 0.563300 -0.340500
s off
f 2/1/1 3/2/1 4/3/1
f 5/4/2 8/1/2 7/2/2
f 1/4/3 5/1/3 6/2/3
f 2/4/4 6/1/4 7/2/4
f 7/1/5 8/2/5 4/3/5
f 1/1/6 4/2/6 8/3/6
f 1/4/1 2/1/1 4/3/1
f 6/3/2 5/4/2 7/2/2
f 2/3/3 1/4/3 6/2/3
f 3/3/4 2/4/4 7/2/4
f 3/4/5 7/1/5 4/3/5
f 5/4/6 1/1/6 8/3/6
