# Blender v2.72 (sub 0) OBJ File: 'Spin.blend'
# www.blender.org
g Cube
v -0.464357 0.860413 -0.186785
v -0.062661 0.487342 0.057058
v 0.027979 0.877130 0.504103
v -0.373716 1.250201 0.260261
v -0.027979 1.122870 -0.504103
v 0.373716 0.749799 -0.260261
v 0.464356 1.139587 0.186785
v 0.062661 1.512658 -0.057058
vt 1.000000 0.000000
vt 1.000000 1.000000
vt 0.000000 1.000000
vt 0.000000 0.000000
vn -0.727300 -0.437400 0.528900
vn 0.727300 0.437400 -0.528900
vn -0.151100 -0.649600 -0.745100
vn 0.669500 -0.621800 0.406400
vn 0.151100 0.649600 0.745100
vn -0.669500 0.621800 -0.406400
s off
f 2/1/1 3/2/1 4/3/1
f 8/1/2 7/2/2 6/3/2
f 5/1/3 6/2/3 2/3/3
f 6/1/4 7/2/4 3/3/4
f 7/1/5 8/2/5 4/3/5
f 1/1/6 4/2/6 8/3/6
f 1/4/1 2/1/1 4/3/1
f 5/4/2 8/1/2 6/3/2
f 1/4/3 5/1/3 2/3/3
f 2/4/4 6/1/4 3/3/4
f 3/4/5 7/1/5 4/3/5
f 5/4/6 1/1/6 8/3/6
