# Blender v2.72 (sub 0) OBJ File: 'Spin.blend'
# www.blender.org
g Cube
v -0.029603 1.371379 0.362217
v -0.306176 0.839548 0.387958
v 0.198711 0.568389 0.210299
v 0.475283 1.100220 0.184558
v -0.198711 1.431611 -0.210299
v -0.475283 0.899780 -0.184558
v 0.029603 0.628621 -0.362217
v 0.306175 1.160452 -0.387958
vt 1.000000 0.000000
vt 1.000000 1.000000
vt 0.000000 1.000000
vt 0.000000 0.000000
vn 0.281800 -0.100400 0.954200
vn -0.281800 0.100400 -0.954200
vn -0.841500 0.451900 0.296100
vn -0.461000 -0.886400 0.042900
vn 0.841500 -0.451900 -0.296100
vn 0.461000 0.886400 -0.042900
s off
f 2/1/1 3/2/1 4/3/1
f 5/4/2 8/1/2 7/2/2
f 1/4/3 5/1/3 6/2/3
f 2/4/4 6/1/4 7/2/4
f 7/1/5 8/2/5 4/3/5
f 1/1/6 4/2/6 8/3/6
f 1/4/1 2/1/1 4/3/1
f 6/3/2 5/4/2 7/2/2
f 2/3/3 1/4/3 6/2/3
f 3/3/4 2/4/4 7/2/4
f 3/4/5 7/1/5 4/3/5
f 5/4/6 1/1/6 8/3/6
