# Blender v2.72 (sub 0) OBJ File: 'Spin.blend'
# www.blender.org
g Cube
v -0.063798 0.641484 -0.370669
v 0.222433 0.554829 0.149487
v -0.221226 0.835153 0.440323
v -0.507457 0.921807 -0.079834
v 0.221226 1.164847 -0.440323
v 0.507457 1.078193 0.079834
v 0.063798 1.358516 0.370669
v -0.222433 1.445171 -0.149487
vt 1.000000 0.000000
vt 1.000000 1.000000
vt 0.000000 1.000000
vt 0.000000 0.000000
vn -0.475000 -0.872300 0.116100
vn 0.475000 0.872300 -0.116100
vn 0.739400 -0.467200 -0.484700
vn 0.477100 -0.144400 0.866900
vn -0.739400 0.467200 0.484700
vn -0.477100 0.144400 -0.866900
s off
f 2/1/1 3/2/1 4/3/1
f 8/1/2 7/2/2 6/3/2
f 1/4/3 5/1/3 6/2/3
f 2/4/4 6/1/4 7/2/4
f 7/1/5 8/2/5 4/3/5
f 1/1/6 4/2/6 8/3/6
f 1/4/1 2/1/1 4/3/1
f 5/4/2 8/1/2 6/3/2
f 2/3/3 1/4/3 6/2/3
f 3/3/4 2/4/4 7/2/4
f 3/4/5 7/1/5 4/3/5
f 5/4/6 1/1/6 8/3/6
