# Blender v2.72 (sub 0) OBJ File: 'Spin.blend'
# www.blender.org
g Cube
v 0.219148 1.326787 0.339388
v -0.196616 0.915504 0.473500
v 0.097802 0.510199 0.143281
v 0.513567 0.921482 0.009168
v -0.097802 1.489801 -0.143281
v -0.513567 1.078518 -0.009168
v -0.219148 0.673213 -0.339388
v 0.196616 1.084496 -0.473500
vt 0.000000 0.000000
vt 1.000000 0.000000
vt 1.000000 1.000000
vt 0.000000 1.000000
vn 0.528300 -0.271700 0.804400
vn -0.528300 0.271700 -0.804400
vn -0.490700 0.675500 0.550400
vn -0.692900 -0.685500 0.223500
vn 0.490700 -0.675500 -0.550400
vn 0.692900 0.685500 -0.223500
s off
f 1/1/1 2/2/1 3/3/1
f 8/2/2 7/3/2 6/4/2
f 1/1/3 5/2/3 6/3/3
f 2/1/4 6/2/4 7/3/4
f 7/2/5 8/3/5 4/4/5
f 1/2/6 4/3/6 8/4/6
f 4/4/1 1/1/1 3/3/1
f 5/1/2 8/2/2 6/4/2
f 2/4/3 1/1/3 6/3/3
f 3/4/4 2/1/4 7/3/4
f 3/1/5 7/2/5 4/4/5
f 5/1/6 1/2/6 8/4/6
