# Blender v2.72 (sub 0) OBJ File: 'Spin.blend'
# www.blender.org
g Cube
v 0.415703 1.205042 0.234838
v -0.046145 0.943285 0.514445
v -0.032921 0.494633 0.116279
v 0.428926 0.756390 -0.163329
v 0.032921 1.505367 -0.116278
v -0.428926 1.243610 0.163329
v -0.415703 0.794958 -0.234838
v 0.046145 1.056715 -0.514445
vt 0.000000 0.000000
vt 1.000000 0.000000
vt 1.000000 1.000000
vt 0.000000 1.000000
vn 0.638000 -0.500500 0.585200
vn -0.638000 0.500500 -0.585200
vn -0.022000 0.747800 0.663600
vn -0.769700 -0.436300 0.466000
vn 0.022000 -0.747800 -0.663600
vn 0.769700 0.436300 -0.466000
s off
f 1/1/1 2/2/1 3/3/1
f 8/2/2 7/3/2 6/4/2
f 1/1/3 5/2/3 6/3/3
f 2/1/4 6/2/4 7/3/4
f 7/2/5 8/3/5 4/4/5
f 1/2/6 4/3/6 8/4/6
f 4/4/1 1/1/1 3/3/1
f 5/1/2 8/2/2 6/4/2
f 2/4/3 1/1/3 6/3/3
f 3/4/4 2/1/4 7/3/4
f 3/1/5 7/2/5 4/4/5
f 5/1/6 1/2/6 8/4/6
