# Blender v2.72 (sub 0) OBJ File: 'Spin.blend'
# www.blender.org
g Cube
v -0.394049 0.781899 -0.259147
v 0.016990 0.484250 0.060934
v -0.039389 0.883855 0.504935
v -0.450428 1.181505 0.184853
v 0.039389 1.116144 -0.504935
v 0.450428 0.818495 -0.184853
v 0.394049 1.218101 0.259147
v -0.016990 1.515750 -0.060934
vt 0.000000 0.000000
vt 1.000000 0.000000
vt 1.000000 1.000000
vt 0.000000 1.000000
vn -0.722400 -0.557100 0.409600
vn 0.722400 0.557100 -0.409600
vn 0.094000 -0.666000 -0.740000
vn 0.685100 -0.496100 0.533500
vn -0.094000 0.666000 0.740000
vn -0.685100 0.496100 -0.533500
s off
f 1/1/1 2/2/1 3/3/1
f 8/2/2 7/3/2 6/4/2
f 1/1/3 5/2/3 6/3/3
f 6/2/4 7/3/4 3/4/4
f 7/2/5 8/3/5 4/4/5
f 1/2/6 4/3/6 8/4/6
f 4/4/1 1/1/1 3/3/1
f 5/1/2 8/2/2 6/4/2
f 2/4/3 1/1/3 6/3/3
f 2/1/4 6/2/4 3/4/4
f 3/1/5 7/2/5 4/4/5
f 5/1/6 1/2/6 8/4/6
