# Blender v2.72 (sub 0) OBJ File: 'Spin.blend'
# www.blender.org
g Cube
v 0.097722 1.359877 0.361855
v -0.258461 0.882646 0.435231
v 0.153734 0.534623 0.172598
v 0.509916 1.011855 0.099222
v -0.153734 1.465377 -0.172598
v -0.509916 0.988145 -0.099222
v -0.097722 0.640123 -0.361855
v 0.258461 1.117354 -0.435231
vt 1.000000 0.000000
vt 1.000000 1.000000
vt 0.000000 1.000000
vt 0.000000 0.000000
vn 0.419100 -0.175800 0.890800
vn -0.419100 0.175800 -0.890800
vn -0.687000 0.580000 0.437700
vn -0.593600 -0.795400 0.122300
vn 0.687000 -0.580000 -0.437700
vn 0.593600 0.795400 -0.122300
s off
f 2/1/1 3/2/1 4/3/1
f 8/1/2 7/2/2 6/3/2
f 1/4/3 5/1/3 6/2/3
f 2/4/4 6/1/4 7/2/4
f 7/1/5 8/2/5 4/3/5
f 1/1/6 4/2/6 8/3/6
f 1/4/1 2/1/1 4/3/1
f 5/4/2 8/1/2 6/3/2
f 2/3/3 1/4/3 6/2/3
f 3/3/4 2/4/4 7/2/4
f 3/4/5 7/1/5 4/3/5
f 5/4/6 1/1/6 8/3/6
