# Blender v2.72 (sub 0) OBJ File: 'Spin.blend'
# www.blender.org
g Cube
v -0.498151 1.126535 0.076381
v -0.269644 0.573935 0.125542
v 0.194968 0.793605 0.435188
v -0.033540 1.346205 0.386027
v -0.194969 1.206395 -0.435188
v 0.033540 0.653794 -0.386027
v 0.498151 0.873465 -0.076381
v 0.269643 1.426065 -0.125542
vt 1.000000 0.000000
vt 1.000000 1.000000
vt 0.000000 1.000000
vt 0.000000 0.000000
vn -0.505300 -0.133100 0.852600
vn 0.505300 0.133100 -0.852600
vn -0.774400 -0.366100 -0.516100
vn 0.380800 -0.921000 0.081900
vn 0.774400 0.366100 0.516100
vn -0.380800 0.921000 -0.081900
s off
f 2/1/1 3/2/1 4/3/1
f 8/1/2 7/2/2 6/3/2
f 1/4/3 5/1/3 6/2/3
f 6/1/4 7/2/4 3/3/4
f 7/1/5 8/2/5 4/3/5
f 5/4/6 1/1/6 4/2/6
f 1/4/1 2/1/1 4/3/1
f 5/4/2 8/1/2 6/3/2
f 2/3/3 1/4/3 6/2/3
f 2/4/4 6/1/4 3/3/4
f 3/4/5 7/1/5 4/3/5
f 8/3/6 5/4/6 4/2/6
