# Blender v2.72 (sub 0) OBJ File: 'Spin.blend'
# www.blender.org
g Cube
v 0.430762 0.779553 -0.189334
v 0.272784 0.790332 0.389394
v -0.288219 0.639750 0.239060
v -0.130242 0.628971 -0.339669
v 0.288219 1.360250 -0.239060
v 0.130242 1.371029 0.339669
v -0.430762 1.220447 0.189334
v -0.272784 1.209668 -0.389394
vt 1.000000 0.000000
vt 1.000000 1.000000
vt 0.000000 1.000000
vt 0.000000 0.000000
vn 0.237600 -0.967800 0.082900
vn -0.237600 0.967800 -0.082900
vn 0.935000 0.251000 0.250600
vn -0.263300 0.018000 0.964500
vn -0.935000 -0.251000 -0.250600
vn 0.263300 -0.018000 -0.964500
s off
f 2/1/1 3/2/1 4/3/1
f 8/1/2 7/2/2 6/3/2
f 1/4/3 5/1/3 6/2/3
f 2/4/4 6/1/4 7/2/4
f 7/1/5 8/2/5 4/3/5
f 1/1/6 4/2/6 8/3/6
f 1/4/1 2/1/1 4/3/1
f 5/4/2 8/1/2 6/3/2
f 2/3/3 1/4/3 6/2/3
f 3/3/4 2/4/4 7/2/4
f 3/4/5 7/1/5 4/3/5
f 5/4/6 1/1/6 8/3/6
