# Blender v2.72 (sub 0) OBJ File: 'Spin.blend'
# www.blender.org
g Cube
v -0.506536 0.947575 -0.103312
v -0.140036 0.504126 0.067072
v 0.092006 0.859012 0.491586
v -0.274493 1.302461 0.321202
v -0.092006 1.140988 -0.491586
v 0.274493 0.697539 -0.321202
v 0.506536 1.052425 0.103312
v 0.140036 1.495874 -0.067072
vt 1.000000 0.000000
vt 1.000000 1.000000
vt 0.000000 1.000000
vt 0.000000 0.000000
vn -0.690900 -0.322400 0.647100
vn 0.690900 0.322400 -0.647100
vn -0.386700 -0.591500 -0.707500
vn 0.610800 -0.739100 0.284000
vn 0.386700 0.591500 0.707500
vn -0.610800 0.739100 -0.284000
s off
f 2/1/1 3/2/1 4/3/1
f 8/1/2 7/2/2 6/3/2
f 1/4/3 5/1/3 6/2/3
f 6/1/4 7/2/4 3/3/4
f 7/1/5 8/2/5 4/3/5
f 1/1/6 4/2/6 8/3/6
f 1/4/1 2/1/1 4/3/1
f 5/4/2 8/1/2 6/3/2
f 2/3/3 1/4/3 6/2/3
f 2/4/4 6/1/4 3/3/4
f 3/4/5 7/1/5 4/3/5
f 5/4/6 1/1/6 8/3/6
