# Blender v2.72 (sub 0) OBJ File: 'Shield.blend'
# www.blender.org
g Cube.006
v 1.812804 3.645256 -0.853680
v 0.825898 2.645257 -2.277062
v 0.874267 2.786678 -2.409954
v 1.861173 3.786678 -0.986572
v 0.141857 4.645256 -0.397677
v -0.845049 3.645256 -1.821059
v -0.796679 3.786678 -1.953951
v 0.190226 4.786677 -0.530569
v 0.797056 0.675406 1.937065
v -0.189850 -0.324593 0.513683
v -0.141481 -0.183171 0.380790
v 0.845425 0.816828 1.804173
v -0.873890 1.675406 2.393068
v -1.860796 0.675407 0.969686
v -1.812427 0.816829 0.836794
v -0.825521 1.816828 2.260176
v -1.419149 3.023934 1.823714
v -2.406055 2.023935 0.400332
v -1.922366 3.438149 -0.928594
v -0.935460 4.438148 0.494789
v -1.586244 3.123934 1.869314
v -2.573150 2.123935 0.445931
v -2.089460 3.538149 -0.882993
v -1.102555 4.538148 0.540388
v 2.089838 0.923935 0.866106
v 1.102932 -0.076064 -0.557275
v 1.586621 1.338150 -1.886201
v 2.573527 2.338149 -0.462819
v 1.922742 1.023935 0.911707
v 0.935837 0.023936 -0.511676
v 1.419527 1.438150 -1.840601
v 2.406432 2.438149 -0.417219
v -0.393089 0.023936 -0.995364
v -0.491780 -0.076064 -1.137703
v -0.008091 1.338150 -2.466629
v 0.090600 1.438149 -2.324290
v -2.064036 1.023936 -0.539360
v -2.162726 0.923936 -0.681700
v -1.679037 2.338150 -2.010625
v -1.580346 2.438149 -1.868286
v 1.679414 2.123936 1.993738
v 1.580723 2.023936 1.851400
v 2.064412 3.438149 0.522474
v 2.163103 3.538149 0.664813
v 0.008467 3.123935 2.449742
v -0.090223 3.023936 2.307403
v 0.393466 4.438149 0.978477
v 0.492157 4.538149 1.120816
vt 1.000000 0.000000
vt 1.000000 1.000000
vt 0.000000 1.000000
vt 0.000000 0.000000
vn 0.835500 -0.500000 -0.228000
vn -0.835500 0.500000 0.228000
vn -0.241800 -0.707100 0.664500
vn -0.493500 -0.500000 -0.711700
vn 0.241800 0.707100 -0.664500
vn 0.493500 0.500000 0.711700
vn -0.493400 -0.500000 -0.711700
s off
f 2/1/1 3/2/1 4/3/1
f 8/1/2 7/2/2 6/3/2
f 5/1/3 6/2/3 2/3/3
f 2/4/4 6/1/4 7/2/4
f 7/1/5 8/2/5 4/3/5
f 5/4/6 1/1/6 4/2/6
f 10/1/1 11/2/1 12/3/1
f 16/1/2 15/2/2 14/3/2
f 13/1/3 14/2/3 10/3/3
f 14/1/4 15/2/4 11/3/4
f 11/4/5 15/1/5 16/2/5
f 9/1/6 12/2/6 16/3/6
f 18/1/1 19/2/1 20/3/1
f 24/1/2 23/2/2 22/3/2
f 17/4/3 21/1/3 22/2/3
f 18/4/4 22/1/4 23/2/4
f 23/1/5 24/2/5 20/3/5
f 17/1/6 20/2/6 24/3/6
f 26/1/1 27/2/1 28/3/1
f 32/1/2 31/2/2 30/3/2
f 25/4/3 29/1/3 30/2/3
f 26/4/7 30/1/7 31/2/7
f 27/4/5 31/1/5 32/2/5
f 29/4/6 25/1/6 28/2/6
f 34/1/1 35/2/1 36/3/1
f 37/4/2 40/1/2 39/2/2
f 33/4/3 37/1/3 38/2/3
f 34/4/4 38/1/4 39/2/4
f 39/1/5 40/2/5 36/3/5
f 37/4/6 33/1/6 36/2/6
f 42/1/1 43/2/1 44/3/1
f 45/4/2 48/1/2 47/2/2
f 45/1/3 46/2/3 42/3/3
f 42/4/4 46/1/4 47/2/4
f 47/1/5 48/2/5 44/3/5
f 41/1/6 44/2/6 48/3/6
f 1/4/1 2/1/1 4/3/1
f 5/4/2 8/1/2 6/3/2
f 1/4/3 5/1/3 2/3/3
f 3/3/4 2/4/4 7/2/4
f 3/4/5 7/1/5 4/3/5
f 8/3/6 5/4/6 4/2/6
f 9/4/1 10/1/1 12/3/1
f 13/4/2 16/1/2 14/3/2
f 9/4/3 13/1/3 10/3/3
f 10/4/4 14/1/4 11/3/4
f 12/3/5 11/4/5 16/2/5
f 13/4/6 9/1/6 16/3/6
f 17/4/1 18/1/1 20/3/1
f 21/4/2 24/1/2 22/3/2
f 18/3/3 17/4/3 22/2/3
f 19/3/4 18/4/4 23/2/4
f 19/4/5 23/1/5 20/3/5
f 21/4/6 17/1/6 24/3/6
f 25/4/1 26/1/1 28/3/1
f 29/4/2 32/1/2 30/3/2
f 26/3/3 25/4/3 30/2/3
f 27/3/4 26/4/4 31/2/4
f 28/3/5 27/4/5 32/2/5
f 32/3/6 29/4/6 28/2/6
f 33/4/1 34/1/1 36/3/1
f 38/3/2 37/4/2 39/2/2
f 34/3/3 33/4/3 38/2/3
f 35/3/4 34/4/4 39/2/4
f 35/4/5 39/1/5 36/3/5
f 40/3/6 37/4/6 36/2/6
f 41/4/1 42/1/1 44/3/1
f 46/3/2 45/4/2 47/2/2
f 41/4/3 45/1/3 42/3/3
f 43/3/4 42/4/4 47/2/4
f 43/4/5 47/1/5 44/3/5
f 45/4/6 41/1/6 48/3/6
