# Blender v2.72 (sub 0) OBJ File: 'Shield.blend'
# www.blender.org
g Cube.006
v -1.146136 3.645256 -1.646734
v -2.376520 2.645257 -0.427654
v -2.515792 2.786678 -0.452212
v -1.285408 3.786678 -1.671292
v -0.406904 4.645256 -0.080357
v -1.637288 3.645256 1.138723
v -1.776560 3.786678 1.114165
v -0.546176 4.786677 -0.104914
v 1.778594 0.675406 -1.131024
v 0.548210 -0.324593 0.088055
v 0.408937 -0.183171 0.063498
v 1.639321 0.816828 -1.155582
v 2.517826 1.675406 0.435353
v 1.287442 0.675406 1.654433
v 1.148169 0.816828 1.629874
v 2.378553 1.816828 0.410795
v 2.051804 3.023934 1.071195
v 0.821420 2.023935 2.290275
v -0.571308 3.438149 2.044699
v 0.659077 4.438148 0.825619
v 2.125727 3.123934 1.227833
v 0.895343 2.123935 2.446913
v -0.497385 3.538149 2.201336
v 0.732999 4.538148 0.982257
v 0.499417 0.923936 -2.218196
v -0.730967 -0.076064 -0.999117
v -2.123694 1.338150 -1.244693
v -0.893310 2.338150 -2.463772
v 0.573340 1.023935 -2.061558
v -0.657044 0.023936 -0.842479
v -2.049772 1.438150 -1.088055
v -0.819387 2.438149 -2.307135
v -0.902619 0.023936 0.550250
v -1.025658 -0.076064 0.672158
v -2.418386 1.338150 0.426582
v -2.295347 1.438149 0.304674
v -0.163387 1.023935 2.116627
v -0.286426 0.923936 2.238535
v -1.679154 2.338150 1.992959
v -1.556115 2.438149 1.871051
v 1.681187 2.123936 -2.009818
v 1.558149 2.023936 -1.887910
v 0.165420 3.438149 -2.133486
v 0.288459 3.538149 -2.255394
v 2.420419 3.123935 -0.443441
v 2.297380 3.023936 -0.321533
v 0.904652 4.438149 -0.567109
v 1.027691 4.538149 -0.689017
vt 1.000000 0.000000
vt 1.000000 1.000000
vt 0.000000 1.000000
vt 0.000000 0.000000
vn -0.369600 -0.500000 -0.783200
vn 0.369600 0.500000 0.783200
vn 0.696400 -0.707100 0.122800
vn -0.615200 -0.500000 0.609500
vn -0.696400 0.707100 -0.122800
vn 0.615200 0.500000 -0.609500
s off
f 2/1/1 3/2/1 4/3/1
f 8/1/2 7/2/2 6/3/2
f 1/4/3 5/1/3 6/2/3
f 6/1/4 7/2/4 3/3/4
f 7/1/5 8/2/5 4/3/5
f 1/1/6 4/2/6 8/3/6
f 10/1/1 11/2/1 12/3/1
f 16/1/2 15/2/2 14/3/2
f 13/1/3 14/2/3 10/3/3
f 10/4/4 14/1/4 15/2/4
f 15/1/5 16/2/5 12/3/5
f 9/1/6 12/2/6 16/3/6
f 18/1/1 19/2/1 20/3/1
f 24/1/2 23/2/2 22/3/2
f 17/4/3 21/1/3 22/2/3
f 18/4/4 22/1/4 23/2/4
f 23/1/5 24/2/5 20/3/5
f 17/1/6 20/2/6 24/3/6
f 26/1/1 27/2/1 28/3/1
f 29/4/2 32/1/2 31/2/2
f 25/4/3 29/1/3 30/2/3
f 26/4/4 30/1/4 31/2/4
f 31/1/5 32/2/5 28/3/5
f 29/4/6 25/1/6 28/2/6
f 33/4/1 34/1/1 35/2/1
f 37/4/2 40/1/2 39/2/2
f 33/4/3 37/1/3 38/2/3
f 34/4/4 38/1/4 39/2/4
f 39/1/5 40/2/5 36/3/5
f 33/1/6 36/2/6 40/3/6
f 42/1/1 43/2/1 44/3/1
f 45/4/2 48/1/2 47/2/2
f 41/4/3 45/1/3 46/2/3
f 46/1/4 47/2/4 43/3/4
f 47/1/5 48/2/5 44/3/5
f 45/4/6 41/1/6 44/2/6
f 1/4/1 2/1/1 4/3/1
f 5/4/2 8/1/2 6/3/2
f 2/3/3 1/4/3 6/2/3
f 2/4/4 6/1/4 3/3/4
f 3/4/5 7/1/5 4/3/5
f 5/4/6 1/1/6 8/3/6
f 9/4/1 10/1/1 12/3/1
f 13/4/2 16/1/2 14/3/2
f 9/4/3 13/1/3 10/3/3
f 11/3/4 10/4/4 15/2/4
f 11/4/5 15/1/5 12/3/5
f 13/4/6 9/1/6 16/3/6
f 17/4/1 18/1/1 20/3/1
f 21/4/2 24/1/2 22/3/2
f 18/3/3 17/4/3 22/2/3
f 19/3/4 18/4/4 23/2/4
f 19/4/5 23/1/5 20/3/5
f 21/4/6 17/1/6 24/3/6
f 25/4/1 26/1/1 28/3/1
f 30/3/2 29/4/2 31/2/2
f 26/3/3 25/4/3 30/2/3
f 27/3/4 26/4/4 31/2/4
f 27/4/5 31/1/5 28/3/5
f 32/3/6 29/4/6 28/2/6
f 36/3/1 33/4/1 35/2/1
f 38/3/2 37/4/2 39/2/2
f 34/3/3 33/4/3 38/2/3
f 35/3/4 34/4/4 39/2/4
f 35/4/5 39/1/5 36/3/5
f 37/4/6 33/1/6 40/3/6
f 41/4/1 42/1/1 44/3/1
f 46/3/2 45/4/2 47/2/2
f 42/3/3 41/4/3 46/2/3
f 42/4/4 46/1/4 43/3/4
f 43/4/5 47/1/5 44/3/5
f 48/3/6 45/4/6 44/2/6
