# Blender v2.72 (sub 0) OBJ File: 'Shield.blend'
# www.blender.org
g Cube.006
v 1.147352 3.645256 1.629166
v 2.377736 2.645257 0.410086
v 2.517009 2.786678 0.434643
v 1.286625 3.786678 1.653724
v 0.408120 4.645256 0.062789
v 1.638504 3.645256 -1.156291
v 1.777776 3.786678 -1.131733
v 0.547393 4.786677 0.087347
v -1.777377 0.675406 1.113457
v -0.546994 -0.324593 -0.105623
v -0.407721 -0.183171 -0.081066
v -1.638105 0.816828 1.138015
v -2.516609 1.675406 -0.452920
v -1.286225 0.675407 -1.672000
v -1.146953 0.816829 -1.647442
v -2.377337 1.816828 -0.428362
v -2.050588 3.023934 -1.088762
v -0.820204 2.023935 -2.307843
v 0.572524 3.438149 -2.062267
v -0.657860 4.438148 -0.843187
v -2.124511 3.123934 -1.245401
v -0.894127 2.123935 -2.464480
v 0.498600 3.538149 -2.218904
v -0.731783 4.538148 -0.999825
v -0.498200 0.923935 2.200629
v 0.732183 -0.076064 0.981549
v 2.124911 1.338150 1.227124
v 0.894527 2.338149 2.446204
v -0.572123 1.023935 2.043990
v 0.658261 0.023936 0.824910
v 2.050988 1.438150 1.070487
v 0.820604 2.438149 2.289567
v 0.903836 0.023936 -0.567818
v 1.026874 -0.076064 -0.689726
v 2.419602 1.338150 -0.444150
v 2.296563 1.438149 -0.322242
v 0.164603 1.023936 -2.134195
v 0.287642 0.923936 -2.256103
v 1.680370 2.338150 -2.010527
v 1.557331 2.438149 -1.888619
v -1.679970 2.123936 1.992251
v -1.556932 2.023936 1.870342
v -0.164203 3.438149 2.115918
v -0.287242 3.538149 2.237826
v -2.419203 3.123935 0.425874
v -2.296163 3.023936 0.303966
v -0.903435 4.438149 0.549542
v -1.026474 4.538149 0.671449
vt 1.000000 0.000000
vt 1.000000 1.000000
vt 0.000000 1.000000
vt 0.000000 0.000000
vn 0.369600 -0.500000 0.783200
vn -0.369600 0.500000 -0.783200
vn -0.696400 -0.707100 -0.122800
vn 0.615200 -0.500000 -0.609500
vn 0.696400 0.707100 0.122800
vn -0.615200 0.500000 0.609500
s off
f 2/1/1 3/2/1 4/3/1
f 8/1/2 7/2/2 6/3/2
f 1/4/3 5/1/3 6/2/3
f 2/4/4 6/1/4 7/2/4
f 3/4/5 7/1/5 8/2/5
f 1/1/6 4/2/6 8/3/6
f 10/1/1 11/2/1 12/3/1
f 16/1/2 15/2/2 14/3/2
f 9/4/3 13/1/3 14/2/3
f 14/1/4 15/2/4 11/3/4
f 15/1/5 16/2/5 12/3/5
f 9/1/6 12/2/6 16/3/6
f 18/1/1 19/2/1 20/3/1
f 24/1/2 23/2/2 22/3/2
f 17/4/3 21/1/3 22/2/3
f 18/4/4 22/1/4 23/2/4
f 23/1/5 24/2/5 20/3/5
f 21/4/6 17/1/6 20/2/6
f 26/1/1 27/2/1 28/3/1
f 32/1/2 31/2/2 30/3/2
f 25/4/3 29/1/3 30/2/3
f 26/4/4 30/1/4 31/2/4
f 31/1/5 32/2/5 28/3/5
f 29/4/6 25/1/6 28/2/6
f 33/4/1 34/1/1 35/2/1
f 37/4/2 40/1/2 39/2/2
f 33/4/3 37/1/3 38/2/3
f 34/4/4 38/1/4 39/2/4
f 39/1/5 40/2/5 36/3/5
f 37/4/6 33/1/6 36/2/6
f 41/4/1 42/1/1 43/2/1
f 45/4/2 48/1/2 47/2/2
f 45/1/3 46/2/3 42/3/3
f 42/4/4 46/1/4 47/2/4
f 43/4/5 47/1/5 48/2/5
f 45/4/6 41/1/6 44/2/6
f 1/4/1 2/1/1 4/3/1
f 5/4/2 8/1/2 6/3/2
f 2/3/3 1/4/3 6/2/3
f 3/3/4 2/4/4 7/2/4
f 4/3/5 3/4/5 8/2/5
f 5/4/6 1/1/6 8/3/6
f 9/4/1 10/1/1 12/3/1
f 13/4/2 16/1/2 14/3/2
f 10/3/3 9/4/3 14/2/3
f 10/4/4 14/1/4 11/3/4
f 11/4/5 15/1/5 12/3/5
f 13/4/6 9/1/6 16/3/6
f 17/4/1 18/1/1 20/3/1
f 21/4/2 24/1/2 22/3/2
f 18/3/3 17/4/3 22/2/3
f 19/3/4 18/4/4 23/2/4
f 19/4/5 23/1/5 20/3/5
f 24/3/6 21/4/6 20/2/6
f 25/4/1 26/1/1 28/3/1
f 29/4/2 32/1/2 30/3/2
f 26/3/3 25/4/3 30/2/3
f 27/3/4 26/4/4 31/2/4
f 27/4/5 31/1/5 28/3/5
f 32/3/6 29/4/6 28/2/6
f 36/3/1 33/4/1 35/2/1
f 38/3/2 37/4/2 39/2/2
f 34/3/3 33/4/3 38/2/3
f 35/3/4 34/4/4 39/2/4
f 35/4/5 39/1/5 36/3/5
f 40/3/6 37/4/6 36/2/6
f 44/3/1 41/4/1 43/2/1
f 46/3/2 45/4/2 47/2/2
f 41/4/3 45/1/3 42/3/3
f 43/3/4 42/4/4 47/2/4
f 44/3/5 43/4/5 48/2/5
f 48/3/6 45/4/6 44/2/6
