# Blender v2.72 (sub 0) OBJ File: 'Shield.blend'
# www.blender.org
g Cube.006
v 1.992486 3.645256 -0.182920
v 1.551923 2.645257 -1.858003
v 1.642827 2.786678 -1.966337
v 2.083390 3.786677 -0.291254
v 0.266348 4.645256 -0.325914
v -0.174215 3.645256 -2.000997
v -0.083311 3.786678 -2.109331
v 0.357252 4.786677 -0.434248
v 0.083505 0.675406 2.092117
v -0.357058 -0.324593 0.417034
v -0.266154 -0.183171 0.308699
v 0.174409 0.816828 1.983782
v -1.642633 1.675406 1.949123
v -2.083196 0.675407 0.274039
v -1.992292 0.816829 0.165705
v -1.551729 1.816828 1.840788
v -1.960278 3.023934 1.227615
v -2.400842 2.023935 -0.447468
v -1.491803 3.438149 -1.530818
v -1.051240 4.438148 0.144266
v -2.132893 3.123934 1.213315
v -2.573455 2.123935 -0.461768
v -1.664416 3.538149 -1.545117
v -1.223854 4.538148 0.129966
v 1.664612 0.923935 1.527902
v 1.224049 -0.076064 -0.147181
v 2.133087 1.338150 -1.230531
v 2.573650 2.338149 0.444553
v 1.491997 1.023935 1.513603
v 1.051435 0.023936 -0.161481
v 1.960474 1.438150 -1.244830
v 2.401037 2.438149 0.430253
v -0.031916 0.023936 -1.070519
v -0.075972 -0.076064 -1.238027
v 0.833066 1.338150 -2.321378
v 0.877122 1.438150 -2.153869
v -1.758054 1.023936 -1.213512
v -1.802110 0.923936 -1.381022
v -0.893072 2.338150 -2.464372
v -0.849016 2.438150 -2.296863
v 0.893266 2.123935 2.447156
v 0.849210 2.023935 2.279648
v 1.758249 3.438149 1.196298
v 1.802305 3.538149 1.363806
v -0.832872 3.123935 2.304163
v -0.876928 3.023936 2.136653
v 0.032111 4.438149 1.053303
v 0.076167 4.538149 1.220812
vt 1.000000 0.000000
vt 1.000000 1.000000
vt 0.000000 1.000000
vt 0.000000 0.000000
vn 0.863100 -0.500000 0.071500
vn -0.863100 0.500000 -0.071500
vn -0.454500 -0.707100 0.541700
vn -0.220300 -0.500000 -0.837500
vn 0.454500 0.707100 -0.541700
vn 0.220300 0.500000 0.837500
s off
f 2/1/1 3/2/1 4/3/1
f 8/1/2 7/2/2 6/3/2
f 1/4/3 5/1/3 6/2/3
f 2/4/4 6/1/4 7/2/4
f 7/1/5 8/2/5 4/3/5
f 1/1/6 4/2/6 8/3/6
f 10/1/1 11/2/1 12/3/1
f 16/1/2 15/2/2 14/3/2
f 9/4/3 13/1/3 14/2/3
f 14/1/4 15/2/4 11/3/4
f 15/1/5 16/2/5 12/3/5
f 13/4/6 9/1/6 12/2/6
f 18/1/1 19/2/1 20/3/1
f 24/1/2 23/2/2 22/3/2
f 17/4/3 21/1/3 22/2/3
f 18/4/4 22/1/4 23/2/4
f 19/4/5 23/1/5 24/2/5
f 17/1/6 20/2/6 24/3/6
f 26/1/1 27/2/1 28/3/1
f 32/1/2 31/2/2 30/3/2
f 25/4/3 29/1/3 30/2/3
f 26/4/4 30/1/4 31/2/4
f 31/1/5 32/2/5 28/3/5
f 25/1/6 28/2/6 32/3/6
f 34/1/1 35/2/1 36/3/1
f 37/4/2 40/1/2 39/2/2
f 33/4/3 37/1/3 38/2/3
f 38/1/4 39/2/4 35/3/4
f 39/1/5 40/2/5 36/3/5
f 37/4/6 33/1/6 36/2/6
f 42/1/1 43/2/1 44/3/1
f 45/4/2 48/1/2 47/2/2
f 45/1/3 46/2/3 42/3/3
f 42/4/4 46/1/4 47/2/4
f 47/1/5 48/2/5 44/3/5
f 45/4/6 41/1/6 44/2/6
f 1/4/1 2/1/1 4/3/1
f 5/4/2 8/1/2 6/3/2
f 2/3/3 1/4/3 6/2/3
f 3/3/4 2/4/4 7/2/4
f 3/4/5 7/1/5 4/3/5
f 5/4/6 1/1/6 8/3/6
f 9/4/1 10/1/1 12/3/1
f 13/4/2 16/1/2 14/3/2
f 10/3/3 9/4/3 14/2/3
f 10/4/4 14/1/4 11/3/4
f 11/4/5 15/1/5 12/3/5
f 16/3/6 13/4/6 12/2/6
f 17/4/1 18/1/1 20/3/1
f 21/4/2 24/1/2 22/3/2
f 18/3/3 17/4/3 22/2/3
f 19/3/4 18/4/4 23/2/4
f 20/3/5 19/4/5 24/2/5
f 21/4/6 17/1/6 24/3/6
f 25/4/1 26/1/1 28/3/1
f 29/4/2 32/1/2 30/3/2
f 26/3/3 25/4/3 30/2/3
f 27/3/4 26/4/4 31/2/4
f 27/4/5 31/1/5 28/3/5
f 29/4/6 25/1/6 32/3/6
f 33/4/1 34/1/1 36/3/1
f 38/3/2 37/4/2 39/2/2
f 34/3/3 33/4/3 38/2/3
f 34/4/4 38/1/4 35/3/4
f 35/4/5 39/1/5 36/3/5
f 40/3/6 37/4/6 36/2/6
f 41/4/1 42/1/1 44/3/1
f 46/3/2 45/4/2 47/2/2
f 41/4/3 45/1/3 42/3/3
f 43/3/4 42/4/4 47/2/4
f 43/4/5 47/1/5 44/3/5
f 48/3/6 45/4/6 44/2/6
