# Blender v2.72 (sub 0) OBJ File: 'Shield.blend'
# www.blender.org
g Cube.006
v 1.638407 3.645256 1.138175
v 2.377640 2.645257 -0.428201
v 2.516912 2.786678 -0.452758
v 1.777680 3.786678 1.113618
v 0.408024 4.645256 -0.080905
v 1.147256 3.645256 -1.647282
v 1.286528 3.786678 -1.671838
v 0.547296 4.786677 -0.105462
v -1.286322 0.675406 1.653885
v -0.547091 -0.324593 0.087508
v -0.407817 -0.183171 0.062950
v -1.147050 0.816828 1.629327
v -2.516706 1.675406 0.434804
v -1.777474 0.675407 -1.131573
v -1.638201 0.816829 -1.156129
v -2.377433 1.816828 0.410247
v -2.296260 3.023934 -0.322081
v -1.557028 2.023935 -1.888458
v -0.164300 3.438149 -2.134033
v -0.903533 4.438148 -0.567657
v -2.419299 3.123934 -0.443990
v -1.680066 2.123935 -2.010366
v -0.287338 3.538149 -2.255941
v -1.026570 4.538148 -0.689565
v 0.287546 0.923935 2.237987
v 1.026778 -0.076064 0.671611
v 2.419505 1.338150 0.426035
v 1.680273 2.338149 1.992412
v 0.164507 1.023935 2.116079
v 0.903740 0.023936 0.549702
v 2.296468 1.438150 0.304127
v 1.557235 2.438149 1.870504
v 0.658163 0.023936 -0.843026
v 0.732087 -0.076064 -0.999664
v 2.124815 1.338150 -1.245240
v 2.050891 1.438149 -1.088601
v -0.572221 1.023936 -2.062106
v -0.498297 0.923936 -2.218744
v 0.894432 2.338150 -2.464320
v 0.820508 2.438149 -2.307682
v -0.894224 2.123936 2.446365
v -0.820301 2.023936 2.289728
v 0.572427 3.438149 2.044152
v 0.498504 3.538149 2.200789
v -2.124608 3.123935 1.227285
v -2.050684 3.023936 1.070647
v -0.657956 4.438149 0.825072
v -0.731880 4.538149 0.981709
vt 1.000000 0.000000
vt 1.000000 1.000000
vt 0.000000 1.000000
vt 0.000000 0.000000
vn 0.615200 -0.500000 0.609500
vn -0.615200 0.500000 -0.609500
vn -0.696400 -0.707100 0.122800
vn 0.369600 -0.500000 -0.783200
vn 0.696400 0.707100 -0.122800
vn -0.369600 0.500000 0.783200
s off
f 2/1/1 3/2/1 4/3/1
f 8/1/2 7/2/2 6/3/2
f 1/4/3 5/1/3 6/2/3
f 6/1/4 7/2/4 3/3/4
f 7/1/5 8/2/5 4/3/5
f 1/1/6 4/2/6 8/3/6
f 10/1/1 11/2/1 12/3/1
f 16/1/2 15/2/2 14/3/2
f 9/4/3 13/1/3 14/2/3
f 14/1/4 15/2/4 11/3/4
f 15/1/5 16/2/5 12/3/5
f 9/1/6 12/2/6 16/3/6
f 18/1/1 19/2/1 20/3/1
f 21/4/2 24/1/2 23/2/2
f 21/1/3 22/2/3 18/3/3
f 18/4/4 22/1/4 23/2/4
f 19/4/5 23/1/5 24/2/5
f 17/1/6 20/2/6 24/3/6
f 25/4/1 26/1/1 27/2/1
f 29/4/2 32/1/2 31/2/2
f 25/4/3 29/1/3 30/2/3
f 26/4/4 30/1/4 31/2/4
f 31/1/5 32/2/5 28/3/5
f 29/4/6 25/1/6 28/2/6
f 33/4/1 34/1/1 35/2/1
f 37/4/2 40/1/2 39/2/2
f 33/4/3 37/1/3 38/2/3
f 38/1/4 39/2/4 35/3/4
f 39/1/5 40/2/5 36/3/5
f 33/1/6 36/2/6 40/3/6
f 41/4/1 42/1/1 43/2/1
f 45/4/2 48/1/2 47/2/2
f 45/1/3 46/2/3 42/3/3
f 42/4/4 46/1/4 47/2/4
f 43/4/5 47/1/5 48/2/5
f 41/1/6 44/2/6 48/3/6
f 1/4/1 2/1/1 4/3/1
f 5/4/2 8/1/2 6/3/2
f 2/3/3 1/4/3 6/2/3
f 2/4/4 6/1/4 3/3/4
f 3/4/5 7/1/5 4/3/5
f 5/4/6 1/1/6 8/3/6
f 9/4/1 10/1/1 12/3/1
f 13/4/2 16/1/2 14/3/2
f 10/3/3 9/4/3 14/2/3
f 10/4/4 14/1/4 11/3/4
f 11/4/5 15/1/5 12/3/5
f 13/4/6 9/1/6 16/3/6
f 17/4/1 18/1/1 20/3/1
f 22/3/2 21/4/2 23/2/2
f 17/4/3 21/1/3 18/3/3
f 19/3/4 18/4/4 23/2/4
f 20/3/5 19/4/5 24/2/5
f 21/4/6 17/1/6 24/3/6
f 28/3/1 25/4/1 27/2/1
f 30/3/2 29/4/2 31/2/2
f 26/3/3 25/4/3 30/2/3
f 27/3/4 26/4/4 31/2/4
f 27/4/5 31/1/5 28/3/5
f 32/3/6 29/4/6 28/2/6
f 36/3/1 33/4/1 35/2/1
f 38/3/2 37/4/2 39/2/2
f 34/3/3 33/4/3 38/2/3
f 34/4/4 38/1/4 35/3/4
f 35/4/5 39/1/5 36/3/5
f 37/4/6 33/1/6 40/3/6
f 44/3/1 41/4/1 43/2/1
f 46/3/2 45/4/2 47/2/2
f 41/4/3 45/1/3 42/3/3
f 43/3/4 42/4/4 47/2/4
f 44/3/5 43/4/5 48/2/5
f 45/4/6 41/1/6 48/3/6
