# Blender v2.72 (sub 0) OBJ File: 'Shield.blend'
# www.blender.org
g Cube.006
v 0.845742 3.645256 -1.820868
v -0.825204 2.645257 -2.276872
v -0.873573 2.786678 -2.409764
v 0.797374 3.786678 -1.953761
v -0.141164 4.645256 -0.397486
v -1.812110 3.645256 -0.853490
v -1.860478 3.786678 -0.986382
v -0.189533 4.786677 -0.530379
v 1.861490 0.675406 0.969876
v 0.190544 -0.324593 0.513873
v 0.142175 -0.183171 0.380980
v 1.813122 0.816828 0.836984
v 0.874584 1.675406 2.393259
v -0.796362 0.675407 1.937255
v -0.844731 0.816829 1.804362
v 0.826215 1.816828 2.260366
v 0.090917 3.023934 2.307593
v -1.580029 2.023935 1.851590
v -2.063718 3.438149 0.522664
v -0.392772 4.438148 0.978668
v -0.007774 3.123934 2.449932
v -1.678720 2.123935 1.993928
v -2.162408 3.538149 0.665002
v -0.491463 4.538148 1.121006
v 2.163420 0.923935 -0.681509
v 0.492474 -0.076064 -1.137513
v 0.008785 1.338150 -2.466438
v 1.679731 2.338149 -2.010435
v 2.064729 1.023935 -0.539171
v 0.393782 0.023936 -0.995175
v -0.089906 1.438150 -2.324100
v 1.581040 2.438149 -1.868097
v -0.935143 0.023936 -0.511485
v -1.102238 -0.076064 -0.557085
v -1.585927 1.338150 -1.886011
v -1.418832 1.438149 -1.840410
v -1.922049 1.023936 0.911898
v -2.089144 0.923936 0.866297
v -2.572834 2.338150 -0.462629
v -2.405738 2.438149 -0.417028
v 2.573844 2.123936 0.446122
v 2.406749 2.023936 0.400522
v 1.923060 3.438149 -0.928404
v 2.090155 3.538149 -0.882803
v 1.586938 3.123935 1.869505
v 1.419843 3.023936 1.823904
v 0.936154 4.438149 0.494978
v 1.103249 4.538149 0.540579
vt 1.000000 0.000000
vt 1.000000 1.000000
vt 0.000000 1.000000
vt 0.000000 0.000000
vn 0.493500 -0.500000 -0.711700
vn -0.493500 0.500000 0.711700
vn 0.241800 -0.707100 0.664500
vn -0.835500 -0.500000 -0.228000
vn -0.241800 0.707100 -0.664500
vn 0.835500 0.500000 0.228000
s off
f 2/1/1 3/2/1 4/3/1
f 8/1/2 7/2/2 6/3/2
f 1/4/3 5/1/3 6/2/3
f 6/1/4 7/2/4 3/3/4
f 7/1/5 8/2/5 4/3/5
f 1/1/6 4/2/6 8/3/6
f 10/1/1 11/2/1 12/3/1
f 16/1/2 15/2/2 14/3/2
f 9/4/3 13/1/3 14/2/3
f 14/1/4 15/2/4 11/3/4
f 15/1/5 16/2/5 12/3/5
f 9/1/6 12/2/6 16/3/6
f 18/1/1 19/2/1 20/3/1
f 24/1/2 23/2/2 22/3/2
f 17/4/3 21/1/3 22/2/3
f 18/4/4 22/1/4 23/2/4
f 19/4/5 23/1/5 24/2/5
f 21/4/6 17/1/6 20/2/6
f 26/1/1 27/2/1 28/3/1
f 29/4/2 32/1/2 31/2/2
f 25/4/3 29/1/3 30/2/3
f 26/4/4 30/1/4 31/2/4
f 31/1/5 32/2/5 28/3/5
f 29/4/6 25/1/6 28/2/6
f 33/4/1 34/1/1 35/2/1
f 37/4/2 40/1/2 39/2/2
f 33/4/3 37/1/3 38/2/3
f 34/4/4 38/1/4 39/2/4
f 39/1/5 40/2/5 36/3/5
f 33/1/6 36/2/6 40/3/6
f 42/1/1 43/2/1 44/3/1
f 45/4/2 48/1/2 47/2/2
f 45/1/3 46/2/3 42/3/3
f 42/4/4 46/1/4 47/2/4
f 47/1/5 48/2/5 44/3/5
f 45/4/6 41/1/6 44/2/6
f 1/4/1 2/1/1 4/3/1
f 5/4/2 8/1/2 6/3/2
f 2/3/3 1/4/3 6/2/3
f 2/4/4 6/1/4 3/3/4
f 3/4/5 7/1/5 4/3/5
f 5/4/6 1/1/6 8/3/6
f 9/4/1 10/1/1 12/3/1
f 13/4/2 16/1/2 14/3/2
f 10/3/3 9/4/3 14/2/3
f 10/4/4 14/1/4 11/3/4
f 11/4/5 15/1/5 12/3/5
f 13/4/6 9/1/6 16/3/6
f 17/4/1 18/1/1 20/3/1
f 21/4/2 24/1/2 22/3/2
f 18/3/3 17/4/3 22/2/3
f 19/3/4 18/4/4 23/2/4
f 20/3/5 19/4/5 24/2/5
f 24/3/6 21/4/6 20/2/6
f 25/4/1 26/1/1 28/3/1
f 30/3/2 29/4/2 31/2/2
f 26/3/3 25/4/3 30/2/3
f 27/3/4 26/4/4 31/2/4
f 27/4/5 31/1/5 28/3/5
f 32/3/6 29/4/6 28/2/6
f 36/3/1 33/4/1 35/2/1
f 38/3/2 37/4/2 39/2/2
f 34/3/3 33/4/3 38/2/3
f 35/3/4 34/4/4 39/2/4
f 35/4/5 39/1/5 36/3/5
f 37/4/6 33/1/6 40/3/6
f 41/4/1 42/1/1 44/3/1
f 46/3/2 45/4/2 47/2/2
f 41/4/3 45/1/3 42/3/3
f 43/3/4 42/4/4 47/2/4
f 43/4/5 47/1/5 44/3/5
f 48/3/6 45/4/6 44/2/6
