# Blender v2.72 (sub 0) OBJ File: 'Shield.blend'
# www.blender.org
g Cube.006
v 1.931919 3.645256 0.508845
v 2.090838 2.645257 -1.215900
v 2.213312 2.786678 -1.286610
v 2.054394 3.786678 0.438135
v 0.358787 4.645256 -0.215900
v 0.517705 3.645256 -1.940645
v 0.640179 3.786678 -2.011354
v 0.481261 4.786677 -0.286610
v -0.640045 0.675406 1.993770
v -0.481126 -0.324593 0.269025
v -0.358652 -0.183171 0.198314
v -0.517570 0.816828 1.923059
v -2.213177 1.675406 1.269025
v -2.054259 0.675407 -0.455720
v -1.931784 0.816829 -0.526430
v -2.090703 1.816828 1.198315
v -2.264896 3.023934 0.482389
v -2.105978 2.023935 -1.242356
v -0.881233 3.438149 -1.949463
v -1.040152 4.438148 -0.224718
v -2.422210 3.123934 0.409914
v -2.263291 2.123935 -1.314831
v -1.038546 3.538149 -2.021937
v -1.197465 4.538148 -0.297193
v 1.038682 0.923935 2.004352
v 1.197601 -0.076064 0.279607
v 2.422345 1.338150 -0.427500
v 2.263426 2.338149 1.297245
v 0.881369 1.023935 1.931877
v 1.040288 0.023936 0.207132
v 2.265032 1.438150 -0.499974
v 2.106113 2.438149 1.224771
v 0.333180 0.023936 -1.017612
v 0.349072 -0.076064 -1.190087
v 1.573816 1.338150 -1.897194
v 1.557924 1.438149 -1.724719
v -1.239953 1.023936 -1.742356
v -1.224060 0.923936 -1.914832
v 0.000684 2.338150 -2.621939
v -0.015208 2.438149 -2.449463
v -0.000548 2.123936 2.604352
v 0.015343 2.023936 2.431878
v 1.240088 3.438149 1.724771
v 1.224196 3.538149 1.897246
v -1.573681 3.123935 1.879608
v -1.557789 3.023936 1.707133
v -0.333044 4.438149 1.000026
v -0.348937 4.538149 1.172501
vt 1.000000 0.000000
vt 1.000000 1.000000
vt 0.000000 1.000000
vt 0.000000 0.000000
vn 0.786600 -0.500000 0.362400
vn -0.786600 0.500000 -0.362400
vn -0.612400 -0.707100 0.353600
vn 0.079500 -0.500000 -0.862400
vn 0.612400 0.707100 -0.353600
vn -0.079500 0.500000 0.862400
vn -0.612400 -0.707100 0.353500
vn 0.612400 0.707100 -0.353500
s off
f 2/1/1 3/2/1 4/3/1
f 8/1/2 7/2/2 6/3/2
f 1/4/3 5/1/3 6/2/3
f 2/4/4 6/1/4 7/2/4
f 7/1/5 8/2/5 4/3/5
f 1/1/6 4/2/6 8/3/6
f 10/1/1 11/2/1 12/3/1
f 16/1/2 15/2/2 14/3/2
f 9/4/3 13/1/3 14/2/3
f 10/4/4 14/1/4 15/2/4
f 15/1/5 16/2/5 12/3/5
f 13/4/6 9/1/6 12/2/6
f 18/1/1 19/2/1 20/3/1
f 24/1/2 23/2/2 22/3/2
f 17/4/3 21/1/3 22/2/3
f 18/4/4 22/1/4 23/2/4
f 23/1/5 24/2/5 20/3/5
f 21/4/6 17/1/6 20/2/6
f 26/1/1 27/2/1 28/3/1
f 29/4/2 32/1/2 31/2/2
f 25/4/3 29/1/3 30/2/3
f 26/4/4 30/1/4 31/2/4
f 31/1/5 32/2/5 28/3/5
f 29/4/6 25/1/6 28/2/6
f 34/1/1 35/2/1 36/3/1
f 37/4/2 40/1/2 39/2/2
f 37/1/7 38/2/7 34/3/7
f 38/1/4 39/2/4 35/3/4
f 39/1/8 40/2/8 36/3/8
f 33/1/6 36/2/6 40/3/6
f 42/1/1 43/2/1 44/3/1
f 45/4/2 48/1/2 47/2/2
f 45/1/7 46/2/7 42/3/7
f 46/1/4 47/2/4 43/3/4
f 47/1/5 48/2/5 44/3/5
f 41/1/6 44/2/6 48/3/6
f 1/4/1 2/1/1 4/3/1
f 5/4/2 8/1/2 6/3/2
f 2/3/3 1/4/3 6/2/3
f 3/3/4 2/4/4 7/2/4
f 3/4/5 7/1/5 4/3/5
f 5/4/6 1/1/6 8/3/6
f 9/4/1 10/1/1 12/3/1
f 13/4/2 16/1/2 14/3/2
f 10/3/3 9/4/3 14/2/3
f 11/3/4 10/4/4 15/2/4
f 11/4/5 15/1/5 12/3/5
f 16/3/6 13/4/6 12/2/6
f 17/4/1 18/1/1 20/3/1
f 21/4/2 24/1/2 22/3/2
f 18/3/3 17/4/3 22/2/3
f 19/3/4 18/4/4 23/2/4
f 19/4/5 23/1/5 20/3/5
f 24/3/6 21/4/6 20/2/6
f 25/4/1 26/1/1 28/3/1
f 30/3/2 29/4/2 31/2/2
f 26/3/3 25/4/3 30/2/3
f 27/3/4 26/4/4 31/2/4
f 27/4/5 31/1/5 28/3/5
f 32/3/6 29/4/6 28/2/6
f 33/4/1 34/1/1 36/3/1
f 38/3/2 37/4/2 39/2/2
f 33/4/3 37/1/3 34/3/3
f 34/4/4 38/1/4 35/3/4
f 35/4/5 39/1/5 36/3/5
f 37/4/6 33/1/6 40/3/6
f 41/4/1 42/1/1 44/3/1
f 46/3/2 45/4/2 47/2/2
f 41/4/3 45/1/3 42/3/3
f 42/4/4 46/1/4 43/3/4
f 43/4/5 47/1/5 44/3/5
f 45/4/6 41/1/6 48/3/6
