# Blender v2.72 (sub 0) OBJ File: 'Shield.blend'
# www.blender.org
g Cube.006
v -1.413142 3.645256 -1.422719
v -2.413142 2.645257 -0.008506
v -2.554562 2.786678 -0.008506
v -1.554562 3.786677 -1.422720
v -0.413142 4.645256 -0.008505
v -1.413142 3.645256 1.405708
v -1.554562 3.786677 1.405707
v -0.554563 4.786677 -0.008506
v 1.556707 0.675406 -1.422719
v 0.556707 -0.324593 -0.008506
v 0.415286 -0.183171 -0.008506
v 1.415286 0.816828 -1.422720
v 2.556707 1.675406 -0.008506
v 1.556707 0.675407 1.405708
v 1.415286 0.816829 1.405707
v 2.415286 1.816828 -0.008506
v 2.208178 3.023935 0.698601
v 1.208178 2.023935 2.112814
v -0.206035 3.438149 2.112814
v 0.793966 4.438148 0.698601
v 2.308178 3.123934 0.840023
v 1.308178 2.123935 2.254236
v -0.106035 3.538149 2.254235
v 0.893965 4.538148 0.840022
v 0.108178 0.923935 -2.271248
v -0.891822 -0.076064 -0.857035
v -2.306035 1.338150 -0.857034
v -1.306034 2.338149 -2.271248
v 0.208178 1.023935 -2.129826
v -0.791823 0.023936 -0.715612
v -2.206035 1.438150 -0.715613
v -1.206035 2.438149 -2.129827
v -0.791822 0.023936 0.698601
v -0.891822 -0.076064 0.840022
v -2.306035 1.338150 0.840022
v -2.206034 1.438149 0.698601
v 0.208179 1.023935 2.112814
v 0.108178 0.923936 2.254236
v -1.306036 2.338150 2.254236
v -1.206035 2.438149 2.112814
v 1.308179 2.123936 -2.271248
v 1.208179 2.023936 -2.129826
v -0.206035 3.438149 -2.129826
v -0.106034 3.538149 -2.271248
v 2.308179 3.123935 -0.857034
v 2.208178 3.023936 -0.715613
v 0.793965 4.438149 -0.715613
v 0.893965 4.538149 -0.857034
vt 1.000000 0.000000
vt 1.000000 1.000000
vt 0.000000 1.000000
vt 0.000000 0.000000
vn -0.500000 -0.500000 -0.707100
vn 0.500000 0.500000 0.707100
vn 0.707100 -0.707100 0.000000
vn -0.500000 -0.500000 0.707100
vn -0.707100 0.707100 0.000000
vn 0.500000 0.500000 -0.707100
s off
f 2/1/1 3/2/1 4/3/1
f 8/1/2 7/2/2 6/3/2
f 1/4/3 5/1/3 6/2/3
f 6/1/4 7/2/4 3/3/4
f 7/1/5 8/2/5 4/3/5
f 1/1/6 4/2/6 8/3/6
f 10/1/1 11/2/1 12/3/1
f 16/1/2 15/2/2 14/3/2
f 9/4/3 13/1/3 14/2/3
f 10/4/4 14/1/4 15/2/4
f 15/1/5 16/2/5 12/3/5
f 13/4/6 9/1/6 12/2/6
f 18/1/1 19/2/1 20/3/1
f 21/4/2 24/1/2 23/2/2
f 17/4/3 21/1/3 22/2/3
f 18/4/4 22/1/4 23/2/4
f 23/1/5 24/2/5 20/3/5
f 17/1/6 20/2/6 24/3/6
f 25/4/1 26/1/1 27/2/1
f 32/1/2 31/2/2 30/3/2
f 25/4/3 29/1/3 30/2/3
f 26/4/4 30/1/4 31/2/4
f 27/4/5 31/1/5 32/2/5
f 25/1/6 28/2/6 32/3/6
f 33/4/1 34/1/1 35/2/1
f 37/4/2 40/1/2 39/2/2
f 37/1/3 38/2/3 34/3/3
f 34/4/4 38/1/4 39/2/4
f 39/1/5 40/2/5 36/3/5
f 33/1/6 36/2/6 40/3/6
f 41/4/1 42/1/1 43/2/1
f 45/4/2 48/1/2 47/2/2
f 45/1/3 46/2/3 42/3/3
f 42/4/4 46/1/4 47/2/4
f 47/1/5 48/2/5 44/3/5
f 45/4/6 41/1/6 44/2/6
f 1/4/1 2/1/1 4/3/1
f 5/4/2 8/1/2 6/3/2
f 2/3/3 1/4/3 6/2/3
f 2/4/4 6/1/4 3/3/4
f 3/4/5 7/1/5 4/3/5
f 5/4/6 1/1/6 8/3/6
f 9/4/1 10/1/1 12/3/1
f 13/4/2 16/1/2 14/3/2
f 10/3/3 9/4/3 14/2/3
f 11/3/4 10/4/4 15/2/4
f 11/4/5 15/1/5 12/3/5
f 16/3/6 13/4/6 12/2/6
f 17/4/1 18/1/1 20/3/1
f 22/3/2 21/4/2 23/2/2
f 18/3/3 17/4/3 22/2/3
f 19/3/4 18/4/4 23/2/4
f 19/4/5 23/1/5 20/3/5
f 21/4/6 17/1/6 24/3/6
f 28/3/1 25/4/1 27/2/1
f 29/4/2 32/1/2 30/3/2
f 26/3/3 25/4/3 30/2/3
f 27/3/4 26/4/4 31/2/4
f 28/3/5 27/4/5 32/2/5
f 29/4/6 25/1/6 32/3/6
f 36/3/1 33/4/1 35/2/1
f 38/3/2 37/4/2 39/2/2
f 33/4/3 37/1/3 34/3/3
f 35/3/4 34/4/4 39/2/4
f 35/4/5 39/1/5 36/3/5
f 37/4/6 33/1/6 40/3/6
f 44/3/1 41/4/1 43/2/1
f 46/3/2 45/4/2 47/2/2
f 41/4/3 45/1/3 42/3/3
f 43/3/4 42/4/4 47/2/4
f 43/4/5 47/1/5 44/3/5
f 48/3/6 45/4/6 44/2/6
