# Blender v2.72 (sub 0) OBJ File: 'Shield.blend'
# www.blender.org
g Cube.006
v -1.930771 3.645256 0.508591
v -1.206027 2.645257 2.081724
v -1.276737 2.786678 2.204197
v -2.001482 3.786678 0.631065
v -0.206025 4.645256 0.349673
v 0.518719 3.645256 1.922806
v 0.448008 3.786678 2.045279
v -0.276736 4.786677 0.472147
v -0.445846 0.675406 -2.063373
v 0.278898 -0.324593 -0.490241
v 0.208188 -0.183171 -0.367766
v -0.516557 0.816828 -1.940899
v 1.278899 1.675406 -2.222291
v 2.003644 0.675407 -0.649158
v 1.932932 0.816829 -0.526685
v 1.208188 1.816828 -2.099817
v 1.717007 3.023934 -1.566903
v 2.441751 2.023935 0.006229
v 1.734644 3.438149 1.230973
v 1.009900 4.438148 -0.342159
v 1.889482 3.123934 -1.582795
v 2.614226 2.123935 -0.009662
v 1.907119 3.538149 1.215082
v 1.182374 4.538148 -0.358051
v -1.904958 0.923935 -1.233174
v -1.180214 -0.076064 0.339958
v -1.887320 1.338150 1.564702
v -2.612065 2.338149 -0.008431
v -1.732483 1.023935 -1.249066
v -1.007739 0.023936 0.324067
v -1.714846 1.438150 1.548810
v -2.439590 2.438149 -0.024322
v 0.217006 0.023936 1.031173
v 0.289481 -0.076064 1.188486
v -0.417626 1.338150 2.413231
v -0.490101 1.438149 2.255917
v 1.941751 1.023936 0.872254
v 2.014225 0.923936 1.029569
v 1.307119 2.338150 2.254313
v 1.234644 2.438149 2.096999
v -1.304957 2.123936 -2.272405
v -1.232483 2.023936 -2.115092
v -1.939590 3.438149 -0.890347
v -2.012064 3.538149 -1.047661
v 0.419788 3.123935 -2.431324
v 0.492262 3.023936 -2.274010
v -0.214845 4.438149 -1.049266
v -0.287319 4.538149 -1.206579
vt 1.000000 0.000000
vt 1.000000 1.000000
vt 0.000000 1.000000
vt 0.000000 0.000000
vn -0.862400 -0.500000 0.079500
vn 0.862400 0.500000 -0.079500
vn 0.353600 -0.707100 -0.612400
vn 0.362400 -0.500000 0.786600
vn -0.353600 0.707100 0.612400
vn -0.362400 0.500000 -0.786600
s off
f 2/1/1 3/2/1 4/3/1
f 8/1/2 7/2/2 6/3/2
f 1/4/3 5/1/3 6/2/3
f 6/1/4 7/2/4 3/3/4
f 7/1/5 8/2/5 4/3/5
f 1/1/6 4/2/6 8/3/6
f 10/1/1 11/2/1 12/3/1
f 16/1/2 15/2/2 14/3/2
f 9/4/3 13/1/3 14/2/3
f 10/4/4 14/1/4 15/2/4
f 15/1/5 16/2/5 12/3/5
f 9/1/6 12/2/6 16/3/6
f 18/1/1 19/2/1 20/3/1
f 24/1/2 23/2/2 22/3/2
f 17/4/3 21/1/3 22/2/3
f 18/4/4 22/1/4 23/2/4
f 23/1/5 24/2/5 20/3/5
f 17/1/6 20/2/6 24/3/6
f 26/1/1 27/2/1 28/3/1
f 29/4/2 32/1/2 31/2/2
f 25/4/3 29/1/3 30/2/3
f 26/4/4 30/1/4 31/2/4
f 31/1/5 32/2/5 28/3/5
f 29/4/6 25/1/6 28/2/6
f 33/4/1 34/1/1 35/2/1
f 37/4/2 40/1/2 39/2/2
f 37/1/3 38/2/3 34/3/3
f 34/4/4 38/1/4 39/2/4
f 39/1/5 40/2/5 36/3/5
f 37/4/6 33/1/6 36/2/6
f 41/4/1 42/1/1 43/2/1
f 45/4/2 48/1/2 47/2/2
f 45/1/3 46/2/3 42/3/3
f 42/4/4 46/1/4 47/2/4
f 47/1/5 48/2/5 44/3/5
f 45/4/6 41/1/6 44/2/6
f 1/4/1 2/1/1 4/3/1
f 5/4/2 8/1/2 6/3/2
f 2/3/3 1/4/3 6/2/3
f 2/4/4 6/1/4 3/3/4
f 3/4/5 7/1/5 4/3/5
f 5/4/6 1/1/6 8/3/6
f 9/4/1 10/1/1 12/3/1
f 13/4/2 16/1/2 14/3/2
f 10/3/3 9/4/3 14/2/3
f 11/3/4 10/4/4 15/2/4
f 11/4/5 15/1/5 12/3/5
f 13/4/6 9/1/6 16/3/6
f 17/4/1 18/1/1 20/3/1
f 21/4/2 24/1/2 22/3/2
f 18/3/3 17/4/3 22/2/3
f 19/3/4 18/4/4 23/2/4
f 19/4/5 23/1/5 20/3/5
f 21/4/6 17/1/6 24/3/6
f 25/4/1 26/1/1 28/3/1
f 30/3/2 29/4/2 31/2/2
f 26/3/3 25/4/3 30/2/3
f 27/3/4 26/4/4 31/2/4
f 27/4/5 31/1/5 28/3/5
f 32/3/6 29/4/6 28/2/6
f 36/3/1 33/4/1 35/2/1
f 38/3/2 37/4/2 39/2/2
f 33/4/3 37/1/3 34/3/3
f 35/3/4 34/4/4 39/2/4
f 35/4/5 39/1/5 36/3/5
f 40/3/6 37/4/6 36/2/6
f 44/3/1 41/4/1 43/2/1
f 46/3/2 45/4/2 47/2/2
f 41/4/3 45/1/3 42/3/3
f 43/3/4 42/4/4 47/2/4
f 43/4/5 47/1/5 44/3/5
f 48/3/6 45/4/6 44/2/6
