# Blender v2.72 (sub 0) OBJ File: 'Shield.blend'
# www.blender.org
g Cube.006
v -0.516767 3.645256 -1.940163
v -2.089899 2.645257 -1.215419
v -2.212373 2.786678 -1.286129
v -0.639241 3.786678 -2.010874
v -0.357849 4.645256 -0.215418
v -1.930981 3.645256 0.509327
v -2.053455 3.786678 0.438616
v -0.480323 4.786677 -0.286128
v 2.055197 0.675406 -0.455238
v 0.482065 -0.324593 0.269506
v 0.359590 -0.183171 0.198795
v 1.932723 0.816828 -0.525949
v 2.214115 1.675406 1.269507
v 0.640983 0.675407 1.994251
v 0.518509 0.816829 1.923540
v 2.091641 1.816828 1.198796
v 1.558727 3.023934 1.707615
v -0.014405 2.023935 2.432359
v -1.239149 3.438149 1.725252
v 0.333983 4.438148 1.000508
v 1.574619 3.123934 1.880090
v 0.001486 2.123935 2.604834
v -1.223257 3.538149 1.897726
v 0.349875 4.538148 1.172982
v 1.224998 0.923935 -1.914350
v -0.348133 -0.076064 -1.189606
v -1.572878 1.338150 -1.896712
v 0.000255 2.338149 -2.621457
v 1.240890 1.023935 -1.741875
v -0.332243 0.023936 -1.017131
v -1.556986 1.438150 -1.724238
v 0.016146 2.438149 -2.448982
v -1.039348 0.023936 0.207614
v -1.196662 -0.076064 0.280089
v -2.421407 1.338150 -0.427018
v -2.264093 1.438149 -0.499493
v -0.880430 1.023936 1.932359
v -1.037744 0.923936 2.004833
v -2.262489 2.338150 1.297727
v -2.105175 2.438149 1.225252
v 2.264229 2.123936 -1.314349
v 2.106916 2.023936 -1.241875
v 0.882172 3.438149 -1.948982
v 1.039485 3.538149 -2.021456
v 2.423148 3.123935 0.410396
v 2.265834 3.023936 0.482870
v 1.041090 4.438149 -0.224237
v 1.198403 4.538149 -0.296711
vt 1.000000 0.000000
vt 1.000000 1.000000
vt 0.000000 1.000000
vt 0.000000 0.000000
vn -0.079500 -0.500000 -0.862400
vn 0.079500 0.500000 0.862400
vn 0.612400 -0.707100 0.353600
vn -0.786600 -0.500000 0.362400
vn -0.612400 0.707100 -0.353600
vn 0.786600 0.500000 -0.362400
s off
f 2/1/1 3/2/1 4/3/1
f 8/1/2 7/2/2 6/3/2
f 1/4/3 5/1/3 6/2/3
f 2/4/4 6/1/4 7/2/4
f 7/1/5 8/2/5 4/3/5
f 1/1/6 4/2/6 8/3/6
f 10/1/1 11/2/1 12/3/1
f 16/1/2 15/2/2 14/3/2
f 9/4/3 13/1/3 14/2/3
f 14/1/4 15/2/4 11/3/4
f 15/1/5 16/2/5 12/3/5
f 9/1/6 12/2/6 16/3/6
f 18/1/1 19/2/1 20/3/1
f 24/1/2 23/2/2 22/3/2
f 17/4/3 21/1/3 22/2/3
f 18/4/4 22/1/4 23/2/4
f 23/1/5 24/2/5 20/3/5
f 17/1/6 20/2/6 24/3/6
f 26/1/1 27/2/1 28/3/1
f 32/1/2 31/2/2 30/3/2
f 25/4/3 29/1/3 30/2/3
f 26/4/4 30/1/4 31/2/4
f 31/1/5 32/2/5 28/3/5
f 25/1/6 28/2/6 32/3/6
f 34/1/1 35/2/1 36/3/1
f 37/4/2 40/1/2 39/2/2
f 37/1/3 38/2/3 34/3/3
f 34/4/4 38/1/4 39/2/4
f 39/1/5 40/2/5 36/3/5
f 33/1/6 36/2/6 40/3/6
f 41/4/1 42/1/1 43/2/1
f 45/4/2 48/1/2 47/2/2
f 45/1/3 46/2/3 42/3/3
f 42/4/4 46/1/4 47/2/4
f 43/4/5 47/1/5 48/2/5
f 45/4/6 41/1/6 44/2/6
f 1/4/1 2/1/1 4/3/1
f 5/4/2 8/1/2 6/3/2
f 2/3/3 1/4/3 6/2/3
f 3/3/4 2/4/4 7/2/4
f 3/4/5 7/1/5 4/3/5
f 5/4/6 1/1/6 8/3/6
f 9/4/1 10/1/1 12/3/1
f 13/4/2 16/1/2 14/3/2
f 10/3/3 9/4/3 14/2/3
f 10/4/4 14/1/4 11/3/4
f 11/4/5 15/1/5 12/3/5
f 13/4/6 9/1/6 16/3/6
f 17/4/1 18/1/1 20/3/1
f 21/4/2 24/1/2 22/3/2
f 18/3/3 17/4/3 22/2/3
f 19/3/4 18/4/4 23/2/4
f 19/4/5 23/1/5 20/3/5
f 21/4/6 17/1/6 24/3/6
f 25/4/1 26/1/1 28/3/1
f 29/4/2 32/1/2 30/3/2
f 26/3/3 25/4/3 30/2/3
f 27/3/4 26/4/4 31/2/4
f 27/4/5 31/1/5 28/3/5
f 29/4/6 25/1/6 32/3/6
f 33/4/1 34/1/1 36/3/1
f 38/3/2 37/4/2 39/2/2
f 33/4/3 37/1/3 34/3/3
f 35/3/4 34/4/4 39/2/4
f 35/4/5 39/1/5 36/3/5
f 37/4/6 33/1/6 40/3/6
f 44/3/1 41/4/1 43/2/1
f 46/3/2 45/4/2 47/2/2
f 41/4/3 45/1/3 42/3/3
f 43/3/4 42/4/4 47/2/4
f 44/3/5 43/4/5 48/2/5
f 48/3/6 45/4/6 44/2/6
