# Blender v2.72 (sub 0) OBJ File: ''
# www.blender.org
o Cube
v 1.007613 -0.984194 -1.036719
v 1.007613 -0.984194 0.963281
v -0.992387 -0.984194 0.963281
v -0.992387 -0.984194 -1.036719
v 1.007613 1.015806 -1.036718
v 1.007612 1.015806 0.963282
v -0.992387 1.015806 0.963281
v -0.992387 1.015806 -1.036719
vt 0.336250 0.335855
vt 0.336250 0.008352
vt 0.663754 0.008352
vt 0.008354 0.335855
vt 0.008354 0.008352
vt 0.335857 0.008352
vt 0.335857 0.336248
vt 0.335857 0.663752
vt 0.008354 0.663752
vt 0.335857 0.664145
vt 0.335857 0.991648
vt 0.008354 0.991648
vt 0.664147 0.335855
vt 0.664147 0.008352
vt 0.991650 0.008352
vt 0.663754 0.663752
vt 0.336250 0.663752
vt 0.336250 0.336248
vt 0.663754 0.335855
vt 0.335857 0.335855
vt 0.008354 0.336248
vt 0.008354 0.664145
vt 0.991650 0.335855
vt 0.663754 0.336248
vn 0.000000 -1.000000 0.000000
vn 0.000000 1.000000 0.000000
vn 1.000000 -0.000000 0.000000
vn -0.000000 -0.000000 1.000000
vn -1.000000 -0.000000 -0.000000
vn 0.000000 0.000000 -1.000000
s off
f 2/1/1 3/2/1 4/3/1
f 8/4/2 7/5/2 6/6/2
f 1/7/3 5/8/3 6/9/3
f 2/10/4 6/11/4 7/12/4
f 3/13/5 7/14/5 8/15/5
f 1/16/6 4/17/6 8/18/6
f 1/19/1 2/1/1 4/3/1
f 5/20/2 8/4/2 6/6/2
f 2/21/3 1/7/3 6/9/3
f 3/22/4 2/10/4 7/12/4
f 4/23/5 3/13/5 8/15/5
f 5/24/6 1/16/6 8/18/6
